<svg xmlns="http://www.w3.org/2000/svg" class="gridfig heat" viewBox="0 0 1324 488" role="img" aria-label="Three heatmaps of the same Team 10 layout, one per official seed, showing which shelves the demand stream hits hardest"><style>.gridfig .floor{fill:#FFFFFF}.gridfig .cellline{stroke:#ECEEEA;fill:none;stroke-width:1}.gridfig .wall{fill:#6B7681}.gridfig .dock{fill:#8250DF}.gridfig .lab{fill:#6B7681}.gridfig .b0{fill:#F1EDF9}.gridfig .b1{fill:#DCCFF3}.gridfig .b2{fill:#BCA4E9}.gridfig .b3{fill:#9878DE}.gridfig .b4{fill:#6E46C4}.gridfig .b5{fill:#46258F}.gridfig .lab{font-family:ui-monospace,Menlo,monospace;font-size:13px}.gridfig{background:#FCFCFA}</style>
  <text class="lab" x="2" y="17">seed 546a59&#8230;</text><g opacity="0.55"><rect class="wall" x="2" y="26" width="416" height="8"/><rect class="wall" x="2" y="434" width="416" height="8"/><rect class="wall" x="2" y="34" width="8" height="400"/><rect class="wall" x="410" y="34" width="8" height="400"/></g><path class="b1" d="M186 42h8v8h-8zM210 42h8v8h-8zM242 42h8v8h-8zM258 42h8v8h-8zM266 42h8v8h-8zM282 42h8v8h-8zM290 42h8v8h-8zM306 42h8v8h-8zM74 50h8v8h-8zM146 50h8v8h-8zM162 50h8v8h-8zM186 50h8v8h-8zM210 50h8v8h-8zM266 50h8v8h-8zM282 50h8v8h-8zM306 50h8v8h-8zM338 50h8v8h-8zM378 50h8v8h-8zM50 58h8v8h-8zM74 58h8v8h-8zM98 58h8v8h-8zM114 58h8v8h-8zM122 58h8v8h-8zM194 58h8v8h-8zM218 58h8v8h-8zM258 58h8v8h-8zM266 58h8v8h-8zM290 58h8v8h-8zM18 66h8v8h-8zM66 66h8v8h-8zM138 66h8v8h-8zM162 66h8v8h-8zM186 66h8v8h-8zM194 66h8v8h-8zM242 66h8v8h-8zM266 66h8v8h-8zM290 66h8v8h-8zM306 66h8v8h-8zM362 66h8v8h-8zM18 82h8v8h-8zM42 82h8v8h-8zM50 82h8v8h-8zM114 82h8v8h-8zM122 82h8v8h-8zM170 82h8v8h-8zM194 82h8v8h-8zM210 82h8v8h-8zM338 82h8v8h-8zM362 82h8v8h-8zM386 82h8v8h-8zM18 90h8v8h-8zM26 90h8v8h-8zM50 90h8v8h-8zM74 90h8v8h-8zM90 90h8v8h-8zM162 90h8v8h-8zM170 90h8v8h-8zM186 90h8v8h-8zM194 90h8v8h-8zM258 90h8v8h-8zM266 90h8v8h-8zM338 90h8v8h-8zM354 90h8v8h-8zM386 90h8v8h-8zM18 98h8v8h-8zM74 98h8v8h-8zM98 98h8v8h-8zM122 98h8v8h-8zM146 98h8v8h-8zM194 98h8v8h-8zM210 98h8v8h-8zM266 98h8v8h-8zM282 98h8v8h-8zM386 98h8v8h-8zM26 106h8v8h-8zM42 106h8v8h-8zM98 106h8v8h-8zM114 106h8v8h-8zM138 106h8v8h-8zM146 106h8v8h-8zM162 106h8v8h-8zM186 106h8v8h-8zM234 106h8v8h-8zM258 106h8v8h-8zM282 106h8v8h-8zM290 106h8v8h-8zM330 106h8v8h-8zM338 106h8v8h-8zM354 106h8v8h-8zM362 106h8v8h-8zM18 122h8v8h-8zM98 122h8v8h-8zM122 122h8v8h-8zM138 122h8v8h-8zM258 122h8v8h-8zM306 122h8v8h-8zM314 122h8v8h-8zM330 122h8v8h-8zM18 130h8v8h-8zM50 130h8v8h-8zM98 130h8v8h-8zM146 130h8v8h-8zM186 130h8v8h-8zM338 130h8v8h-8zM74 138h8v8h-8zM122 138h8v8h-8zM146 138h8v8h-8zM170 138h8v8h-8zM186 138h8v8h-8zM194 138h8v8h-8zM210 138h8v8h-8zM218 138h8v8h-8zM242 138h8v8h-8zM258 138h8v8h-8zM290 138h8v8h-8zM330 138h8v8h-8zM338 138h8v8h-8zM362 138h8v8h-8zM378 138h8v8h-8zM26 146h8v8h-8zM66 146h8v8h-8zM90 146h8v8h-8zM98 146h8v8h-8zM146 146h8v8h-8zM162 146h8v8h-8zM186 146h8v8h-8zM210 146h8v8h-8zM218 146h8v8h-8zM282 146h8v8h-8zM314 146h8v8h-8zM330 146h8v8h-8zM338 146h8v8h-8zM362 146h8v8h-8zM18 162h8v8h-8zM50 162h8v8h-8zM74 162h8v8h-8zM114 162h8v8h-8zM162 162h8v8h-8zM186 162h8v8h-8zM194 162h8v8h-8zM218 162h8v8h-8zM234 162h8v8h-8zM242 162h8v8h-8zM258 162h8v8h-8zM290 162h8v8h-8zM354 162h8v8h-8zM362 162h8v8h-8zM386 162h8v8h-8zM18 170h8v8h-8zM26 170h8v8h-8zM74 170h8v8h-8zM90 170h8v8h-8zM98 170h8v8h-8zM138 170h8v8h-8zM162 170h8v8h-8zM210 170h8v8h-8zM234 170h8v8h-8zM242 170h8v8h-8zM266 170h8v8h-8zM282 170h8v8h-8zM290 170h8v8h-8zM306 170h8v8h-8zM314 170h8v8h-8zM330 170h8v8h-8zM338 170h8v8h-8zM362 170h8v8h-8zM386 170h8v8h-8zM18 178h8v8h-8zM50 178h8v8h-8zM66 178h8v8h-8zM90 178h8v8h-8zM146 178h8v8h-8zM162 178h8v8h-8zM194 178h8v8h-8zM210 178h8v8h-8zM234 178h8v8h-8zM242 178h8v8h-8zM266 178h8v8h-8zM306 178h8v8h-8zM330 178h8v8h-8zM338 178h8v8h-8zM66 186h8v8h-8zM74 186h8v8h-8zM170 186h8v8h-8zM194 186h8v8h-8zM210 186h8v8h-8zM218 186h8v8h-8zM234 186h8v8h-8zM282 186h8v8h-8zM290 186h8v8h-8zM306 186h8v8h-8zM314 186h8v8h-8zM378 186h8v8h-8zM386 186h8v8h-8zM26 202h8v8h-8zM42 202h8v8h-8zM66 202h8v8h-8zM122 202h8v8h-8zM146 202h8v8h-8zM162 202h8v8h-8zM170 202h8v8h-8zM194 202h8v8h-8zM266 202h8v8h-8zM314 202h8v8h-8zM338 202h8v8h-8zM354 202h8v8h-8zM378 202h8v8h-8zM50 210h8v8h-8zM66 210h8v8h-8zM74 210h8v8h-8zM162 210h8v8h-8zM210 210h8v8h-8zM234 210h8v8h-8zM290 210h8v8h-8zM330 210h8v8h-8zM338 210h8v8h-8zM354 210h8v8h-8zM362 210h8v8h-8zM386 210h8v8h-8zM186 218h8v8h-8zM210 218h8v8h-8zM218 218h8v8h-8zM290 218h8v8h-8zM306 218h8v8h-8zM354 218h8v8h-8zM42 226h8v8h-8zM50 226h8v8h-8zM90 226h8v8h-8zM114 226h8v8h-8zM146 226h8v8h-8zM162 226h8v8h-8zM170 226h8v8h-8zM194 226h8v8h-8zM242 226h8v8h-8zM258 226h8v8h-8zM266 226h8v8h-8zM282 226h8v8h-8zM290 226h8v8h-8zM386 226h8v8h-8zM18 242h8v8h-8zM26 242h8v8h-8zM42 242h8v8h-8zM66 242h8v8h-8zM90 242h8v8h-8zM114 242h8v8h-8zM138 242h8v8h-8zM162 242h8v8h-8zM170 242h8v8h-8zM362 242h8v8h-8zM378 242h8v8h-8zM18 250h8v8h-8zM26 250h8v8h-8zM50 250h8v8h-8zM66 250h8v8h-8zM98 250h8v8h-8zM146 250h8v8h-8zM162 250h8v8h-8zM170 250h8v8h-8zM186 250h8v8h-8zM218 250h8v8h-8zM258 250h8v8h-8zM266 250h8v8h-8zM290 250h8v8h-8zM306 250h8v8h-8zM354 250h8v8h-8zM378 250h8v8h-8zM26 258h8v8h-8zM50 258h8v8h-8zM90 258h8v8h-8zM98 258h8v8h-8zM114 258h8v8h-8zM122 258h8v8h-8zM138 258h8v8h-8zM146 258h8v8h-8zM162 258h8v8h-8zM186 258h8v8h-8zM218 258h8v8h-8zM234 258h8v8h-8zM290 258h8v8h-8zM306 258h8v8h-8zM330 258h8v8h-8zM338 258h8v8h-8zM354 258h8v8h-8zM362 258h8v8h-8zM18 266h8v8h-8zM170 266h8v8h-8zM218 266h8v8h-8zM234 266h8v8h-8zM258 266h8v8h-8zM266 266h8v8h-8zM290 266h8v8h-8zM330 266h8v8h-8zM18 282h8v8h-8zM162 282h8v8h-8zM186 282h8v8h-8zM194 282h8v8h-8zM210 282h8v8h-8zM258 282h8v8h-8zM266 282h8v8h-8zM306 282h8v8h-8zM18 290h8v8h-8zM42 290h8v8h-8zM50 290h8v8h-8zM66 290h8v8h-8zM90 290h8v8h-8zM162 290h8v8h-8zM210 290h8v8h-8zM234 290h8v8h-8zM266 290h8v8h-8zM282 290h8v8h-8zM314 290h8v8h-8zM338 290h8v8h-8zM362 290h8v8h-8zM378 290h8v8h-8zM386 290h8v8h-8zM26 298h8v8h-8zM42 298h8v8h-8zM50 298h8v8h-8zM98 298h8v8h-8zM114 298h8v8h-8zM122 298h8v8h-8zM138 298h8v8h-8zM146 298h8v8h-8zM162 298h8v8h-8zM186 298h8v8h-8zM210 298h8v8h-8zM218 298h8v8h-8zM282 298h8v8h-8zM306 298h8v8h-8zM314 298h8v8h-8zM330 298h8v8h-8zM338 298h8v8h-8zM354 298h8v8h-8zM362 298h8v8h-8zM26 306h8v8h-8zM42 306h8v8h-8zM90 306h8v8h-8zM114 306h8v8h-8zM122 306h8v8h-8zM162 306h8v8h-8zM170 306h8v8h-8zM210 306h8v8h-8zM242 306h8v8h-8zM266 306h8v8h-8zM306 306h8v8h-8zM170 322h8v8h-8zM194 322h8v8h-8zM234 322h8v8h-8zM242 322h8v8h-8zM282 322h8v8h-8zM306 322h8v8h-8zM314 322h8v8h-8zM330 322h8v8h-8zM386 322h8v8h-8zM50 330h8v8h-8zM74 330h8v8h-8zM90 330h8v8h-8zM138 330h8v8h-8zM146 330h8v8h-8zM162 330h8v8h-8zM170 330h8v8h-8zM186 330h8v8h-8zM194 330h8v8h-8zM210 330h8v8h-8zM242 330h8v8h-8zM266 330h8v8h-8zM290 330h8v8h-8zM306 330h8v8h-8zM314 330h8v8h-8zM362 330h8v8h-8zM18 338h8v8h-8zM26 338h8v8h-8zM66 338h8v8h-8zM98 338h8v8h-8zM122 338h8v8h-8zM162 338h8v8h-8zM186 338h8v8h-8zM194 338h8v8h-8zM210 338h8v8h-8zM234 338h8v8h-8zM266 338h8v8h-8zM290 338h8v8h-8zM314 338h8v8h-8zM330 338h8v8h-8zM338 338h8v8h-8zM354 338h8v8h-8zM362 338h8v8h-8zM26 346h8v8h-8zM50 346h8v8h-8zM90 346h8v8h-8zM122 346h8v8h-8zM138 346h8v8h-8zM170 346h8v8h-8zM186 346h8v8h-8zM258 346h8v8h-8zM282 346h8v8h-8zM290 346h8v8h-8zM330 346h8v8h-8zM18 362h8v8h-8zM98 362h8v8h-8zM146 362h8v8h-8zM162 362h8v8h-8zM170 362h8v8h-8zM194 362h8v8h-8zM210 362h8v8h-8zM258 362h8v8h-8zM282 362h8v8h-8zM354 362h8v8h-8zM362 362h8v8h-8zM378 362h8v8h-8zM98 370h8v8h-8zM114 370h8v8h-8zM210 370h8v8h-8zM218 370h8v8h-8zM282 370h8v8h-8zM290 370h8v8h-8zM18 378h8v8h-8zM26 378h8v8h-8zM50 378h8v8h-8zM74 378h8v8h-8zM90 378h8v8h-8zM146 378h8v8h-8zM162 378h8v8h-8zM186 378h8v8h-8zM194 378h8v8h-8zM210 378h8v8h-8zM218 378h8v8h-8zM266 378h8v8h-8zM290 378h8v8h-8zM330 378h8v8h-8zM354 378h8v8h-8zM50 386h8v8h-8zM114 386h8v8h-8zM122 386h8v8h-8zM146 386h8v8h-8zM306 386h8v8h-8zM386 386h8v8h-8zM18 402h8v8h-8zM66 402h8v8h-8zM170 402h8v8h-8zM218 402h8v8h-8zM234 402h8v8h-8zM258 402h8v8h-8zM354 402h8v8h-8zM362 402h8v8h-8zM18 410h8v8h-8zM26 410h8v8h-8zM122 410h8v8h-8zM146 410h8v8h-8zM162 410h8v8h-8zM194 410h8v8h-8zM218 410h8v8h-8zM242 410h8v8h-8zM258 410h8v8h-8zM266 410h8v8h-8zM290 410h8v8h-8zM330 410h8v8h-8zM338 410h8v8h-8zM354 410h8v8h-8zM362 410h8v8h-8zM378 410h8v8h-8zM122 418h8v8h-8zM146 418h8v8h-8zM210 418h8v8h-8zM378 418h8v8h-8z"/><path class="b2" d="M170 42h8v8h-8zM194 42h8v8h-8zM170 50h8v8h-8zM314 50h8v8h-8zM146 58h8v8h-8zM210 58h8v8h-8zM282 58h8v8h-8zM50 66h8v8h-8zM74 66h8v8h-8zM146 66h8v8h-8zM210 66h8v8h-8zM234 66h8v8h-8zM98 82h8v8h-8zM242 82h8v8h-8zM98 90h8v8h-8zM210 90h8v8h-8zM290 90h8v8h-8zM26 98h8v8h-8zM42 98h8v8h-8zM138 98h8v8h-8zM66 106h8v8h-8zM170 106h8v8h-8zM210 106h8v8h-8zM218 106h8v8h-8zM266 122h8v8h-8zM362 122h8v8h-8zM114 130h8v8h-8zM162 130h8v8h-8zM194 130h8v8h-8zM162 138h8v8h-8zM234 138h8v8h-8zM50 146h8v8h-8zM122 146h8v8h-8zM194 146h8v8h-8zM258 146h8v8h-8zM266 146h8v8h-8zM378 146h8v8h-8zM42 162h8v8h-8zM282 162h8v8h-8zM338 162h8v8h-8zM50 170h8v8h-8zM66 170h8v8h-8zM122 170h8v8h-8zM186 170h8v8h-8zM26 178h8v8h-8zM170 178h8v8h-8zM354 178h8v8h-8zM378 178h8v8h-8zM98 186h8v8h-8zM114 186h8v8h-8zM266 186h8v8h-8zM330 186h8v8h-8zM338 186h8v8h-8zM362 186h8v8h-8zM114 202h8v8h-8zM218 202h8v8h-8zM234 202h8v8h-8zM258 202h8v8h-8zM98 210h8v8h-8zM186 210h8v8h-8zM218 210h8v8h-8zM258 210h8v8h-8zM306 210h8v8h-8zM170 218h8v8h-8zM242 218h8v8h-8zM258 218h8v8h-8zM122 226h8v8h-8zM138 226h8v8h-8zM210 226h8v8h-8zM338 226h8v8h-8zM186 242h8v8h-8zM42 250h8v8h-8zM114 250h8v8h-8zM234 250h8v8h-8zM242 250h8v8h-8zM362 250h8v8h-8zM18 258h8v8h-8zM42 258h8v8h-8zM210 258h8v8h-8zM266 258h8v8h-8zM282 258h8v8h-8zM378 258h8v8h-8zM42 266h8v8h-8zM74 266h8v8h-8zM90 266h8v8h-8zM98 266h8v8h-8zM146 266h8v8h-8zM186 266h8v8h-8zM314 266h8v8h-8zM26 282h8v8h-8zM170 282h8v8h-8zM234 282h8v8h-8zM290 282h8v8h-8zM194 290h8v8h-8zM218 290h8v8h-8zM330 290h8v8h-8zM74 298h8v8h-8zM234 298h8v8h-8zM266 298h8v8h-8zM18 306h8v8h-8zM66 306h8v8h-8zM74 306h8v8h-8zM138 306h8v8h-8zM186 306h8v8h-8zM354 306h8v8h-8zM266 322h8v8h-8zM362 322h8v8h-8zM42 330h8v8h-8zM114 330h8v8h-8zM258 330h8v8h-8zM282 330h8v8h-8zM338 330h8v8h-8zM354 330h8v8h-8zM90 338h8v8h-8zM138 338h8v8h-8zM66 346h8v8h-8zM74 346h8v8h-8zM98 346h8v8h-8zM146 346h8v8h-8zM194 346h8v8h-8zM234 346h8v8h-8zM266 346h8v8h-8zM66 362h8v8h-8zM90 362h8v8h-8zM234 362h8v8h-8zM266 362h8v8h-8zM170 370h8v8h-8zM66 378h8v8h-8zM234 378h8v8h-8zM282 378h8v8h-8zM362 378h8v8h-8zM330 386h8v8h-8zM26 402h8v8h-8zM210 402h8v8h-8zM186 410h8v8h-8zM282 410h8v8h-8zM306 410h8v8h-8zM386 410h8v8h-8zM194 418h8v8h-8zM218 418h8v8h-8z"/><path class="b3" d="M162 42h8v8h-8zM234 42h8v8h-8zM386 42h8v8h-8zM122 50h8v8h-8zM138 50h8v8h-8zM290 50h8v8h-8zM330 50h8v8h-8zM362 50h8v8h-8zM66 58h8v8h-8zM138 58h8v8h-8zM170 58h8v8h-8zM186 58h8v8h-8zM242 58h8v8h-8zM26 66h8v8h-8zM218 66h8v8h-8zM258 66h8v8h-8zM282 66h8v8h-8zM330 66h8v8h-8zM338 66h8v8h-8zM354 66h8v8h-8zM26 82h8v8h-8zM66 82h8v8h-8zM74 82h8v8h-8zM90 82h8v8h-8zM146 82h8v8h-8zM162 82h8v8h-8zM186 82h8v8h-8zM218 82h8v8h-8zM234 82h8v8h-8zM42 90h8v8h-8zM66 90h8v8h-8zM114 90h8v8h-8zM122 90h8v8h-8zM218 90h8v8h-8zM234 90h8v8h-8zM242 90h8v8h-8zM306 90h8v8h-8zM314 90h8v8h-8zM362 90h8v8h-8zM378 90h8v8h-8zM114 98h8v8h-8zM162 98h8v8h-8zM338 98h8v8h-8zM362 98h8v8h-8zM378 98h8v8h-8zM50 106h8v8h-8zM74 106h8v8h-8zM90 106h8v8h-8zM122 106h8v8h-8zM194 106h8v8h-8zM242 106h8v8h-8zM306 106h8v8h-8zM314 106h8v8h-8zM26 122h8v8h-8zM90 122h8v8h-8zM114 122h8v8h-8zM282 122h8v8h-8zM338 122h8v8h-8zM354 122h8v8h-8zM26 130h8v8h-8zM42 130h8v8h-8zM74 130h8v8h-8zM90 130h8v8h-8zM122 130h8v8h-8zM170 130h8v8h-8zM362 130h8v8h-8zM138 138h8v8h-8zM266 138h8v8h-8zM282 138h8v8h-8zM306 138h8v8h-8zM314 138h8v8h-8zM386 138h8v8h-8zM18 146h8v8h-8zM42 146h8v8h-8zM114 146h8v8h-8zM234 146h8v8h-8zM242 146h8v8h-8zM306 146h8v8h-8zM354 146h8v8h-8zM26 162h8v8h-8zM90 162h8v8h-8zM122 162h8v8h-8zM138 162h8v8h-8zM146 162h8v8h-8zM210 162h8v8h-8zM266 162h8v8h-8zM330 162h8v8h-8zM146 170h8v8h-8zM170 170h8v8h-8zM194 170h8v8h-8zM218 170h8v8h-8zM258 170h8v8h-8zM354 170h8v8h-8zM74 178h8v8h-8zM186 178h8v8h-8zM218 178h8v8h-8zM258 178h8v8h-8zM282 178h8v8h-8zM290 178h8v8h-8zM314 178h8v8h-8zM362 178h8v8h-8zM386 178h8v8h-8zM90 186h8v8h-8zM122 186h8v8h-8zM138 186h8v8h-8zM146 186h8v8h-8zM162 186h8v8h-8zM186 186h8v8h-8zM242 186h8v8h-8zM258 186h8v8h-8zM354 186h8v8h-8zM18 202h8v8h-8zM74 202h8v8h-8zM90 202h8v8h-8zM138 202h8v8h-8zM186 202h8v8h-8zM210 202h8v8h-8zM242 202h8v8h-8zM282 202h8v8h-8zM290 202h8v8h-8zM306 202h8v8h-8zM330 202h8v8h-8zM386 202h8v8h-8zM18 210h8v8h-8zM26 210h8v8h-8zM42 210h8v8h-8zM90 210h8v8h-8zM114 210h8v8h-8zM122 210h8v8h-8zM138 210h8v8h-8zM146 210h8v8h-8zM170 210h8v8h-8zM194 210h8v8h-8zM242 210h8v8h-8zM266 210h8v8h-8zM282 210h8v8h-8zM194 218h8v8h-8zM234 218h8v8h-8zM266 218h8v8h-8zM338 218h8v8h-8zM18 226h8v8h-8zM66 226h8v8h-8zM74 226h8v8h-8zM98 226h8v8h-8zM234 226h8v8h-8zM306 226h8v8h-8zM314 226h8v8h-8zM354 226h8v8h-8zM362 226h8v8h-8zM378 226h8v8h-8zM50 242h8v8h-8zM98 242h8v8h-8zM122 242h8v8h-8zM386 242h8v8h-8zM122 250h8v8h-8zM138 250h8v8h-8zM210 250h8v8h-8zM338 250h8v8h-8zM74 258h8v8h-8zM170 258h8v8h-8zM194 258h8v8h-8zM242 258h8v8h-8zM314 258h8v8h-8zM386 258h8v8h-8zM50 266h8v8h-8zM66 266h8v8h-8zM114 266h8v8h-8zM122 266h8v8h-8zM138 266h8v8h-8zM194 266h8v8h-8zM282 266h8v8h-8zM218 282h8v8h-8zM282 282h8v8h-8zM26 290h8v8h-8zM74 290h8v8h-8zM114 290h8v8h-8zM138 290h8v8h-8zM146 290h8v8h-8zM170 290h8v8h-8zM242 290h8v8h-8zM258 290h8v8h-8zM290 290h8v8h-8zM306 290h8v8h-8zM66 298h8v8h-8zM90 298h8v8h-8zM258 298h8v8h-8zM290 298h8v8h-8zM378 298h8v8h-8zM50 306h8v8h-8zM98 306h8v8h-8zM146 306h8v8h-8zM218 306h8v8h-8zM234 306h8v8h-8zM258 306h8v8h-8zM282 306h8v8h-8zM290 306h8v8h-8zM362 306h8v8h-8zM146 322h8v8h-8zM186 322h8v8h-8zM210 322h8v8h-8zM258 322h8v8h-8zM338 322h8v8h-8zM354 322h8v8h-8zM378 322h8v8h-8zM98 330h8v8h-8zM218 330h8v8h-8zM234 330h8v8h-8zM330 330h8v8h-8zM378 330h8v8h-8zM386 330h8v8h-8zM146 338h8v8h-8zM170 338h8v8h-8zM218 338h8v8h-8zM242 338h8v8h-8zM258 338h8v8h-8zM282 338h8v8h-8zM42 346h8v8h-8zM210 346h8v8h-8zM218 346h8v8h-8zM242 346h8v8h-8zM306 346h8v8h-8zM42 362h8v8h-8zM114 362h8v8h-8zM122 362h8v8h-8zM138 362h8v8h-8zM242 362h8v8h-8zM290 362h8v8h-8zM306 362h8v8h-8zM330 362h8v8h-8zM338 362h8v8h-8zM386 362h8v8h-8zM242 370h8v8h-8zM258 370h8v8h-8zM266 370h8v8h-8zM98 378h8v8h-8zM114 378h8v8h-8zM122 378h8v8h-8zM170 378h8v8h-8zM242 378h8v8h-8zM306 378h8v8h-8zM314 378h8v8h-8zM338 378h8v8h-8zM378 378h8v8h-8zM26 386h8v8h-8zM42 386h8v8h-8zM98 386h8v8h-8zM162 386h8v8h-8zM314 386h8v8h-8zM338 386h8v8h-8zM354 386h8v8h-8zM362 386h8v8h-8zM378 386h8v8h-8zM194 402h8v8h-8zM386 402h8v8h-8zM170 410h8v8h-8zM210 410h8v8h-8zM314 410h8v8h-8zM18 418h8v8h-8zM26 418h8v8h-8zM138 418h8v8h-8zM162 418h8v8h-8z"/><path class="b4" d="M314 42h8v8h-8zM194 50h8v8h-8zM354 50h8v8h-8zM386 50h8v8h-8zM306 58h8v8h-8zM42 66h8v8h-8zM170 66h8v8h-8zM146 90h8v8h-8zM90 98h8v8h-8zM266 106h8v8h-8zM378 106h8v8h-8zM162 122h8v8h-8zM290 122h8v8h-8zM354 130h8v8h-8zM90 138h8v8h-8zM74 146h8v8h-8zM138 146h8v8h-8zM170 146h8v8h-8zM386 146h8v8h-8zM66 162h8v8h-8zM98 162h8v8h-8zM170 162h8v8h-8zM306 162h8v8h-8zM314 162h8v8h-8zM42 170h8v8h-8zM114 170h8v8h-8zM98 178h8v8h-8zM122 178h8v8h-8zM50 202h8v8h-8zM98 202h8v8h-8zM282 218h8v8h-8zM186 226h8v8h-8zM218 226h8v8h-8zM330 226h8v8h-8zM74 242h8v8h-8zM194 250h8v8h-8zM258 258h8v8h-8zM210 266h8v8h-8zM42 282h8v8h-8zM242 282h8v8h-8zM314 282h8v8h-8zM186 290h8v8h-8zM354 290h8v8h-8zM170 298h8v8h-8zM194 298h8v8h-8zM386 298h8v8h-8zM194 306h8v8h-8zM314 306h8v8h-8zM338 306h8v8h-8zM218 322h8v8h-8zM122 330h8v8h-8zM42 338h8v8h-8zM50 338h8v8h-8zM306 338h8v8h-8zM18 346h8v8h-8zM114 346h8v8h-8zM314 346h8v8h-8zM26 362h8v8h-8zM50 362h8v8h-8zM186 362h8v8h-8zM218 362h8v8h-8zM194 370h8v8h-8zM138 378h8v8h-8zM258 378h8v8h-8zM386 378h8v8h-8zM186 402h8v8h-8zM242 402h8v8h-8zM362 418h8v8h-8z"/><path class="b5" d="M218 42h8v8h-8zM314 66h8v8h-8zM138 82h8v8h-8zM282 90h8v8h-8zM354 138h8v8h-8zM290 146h8v8h-8zM362 202h8v8h-8zM314 210h8v8h-8zM74 218h8v8h-8zM26 226h8v8h-8zM26 266h8v8h-8zM242 266h8v8h-8zM146 282h8v8h-8zM330 282h8v8h-8zM98 290h8v8h-8zM122 290h8v8h-8zM242 298h8v8h-8zM330 306h8v8h-8zM290 322h8v8h-8zM26 330h8v8h-8zM74 338h8v8h-8zM162 346h8v8h-8zM74 362h8v8h-8zM378 402h8v8h-8zM234 410h8v8h-8zM170 418h8v8h-8z"/><text class="lab" x="454" y="17">seed bff0fb&#8230;</text><g opacity="0.55"><rect class="wall" x="454" y="26" width="416" height="8"/><rect class="wall" x="454" y="434" width="416" height="8"/><rect class="wall" x="454" y="34" width="8" height="400"/><rect class="wall" x="862" y="34" width="8" height="400"/></g><path class="b1" d="M622 42h8v8h-8zM638 42h8v8h-8zM646 42h8v8h-8zM662 42h8v8h-8zM670 42h8v8h-8zM686 42h8v8h-8zM694 42h8v8h-8zM710 42h8v8h-8zM718 42h8v8h-8zM734 42h8v8h-8zM742 42h8v8h-8zM838 42h8v8h-8zM598 50h8v8h-8zM638 50h8v8h-8zM734 50h8v8h-8zM742 50h8v8h-8zM766 50h8v8h-8zM790 50h8v8h-8zM806 50h8v8h-8zM830 50h8v8h-8zM838 50h8v8h-8zM518 58h8v8h-8zM550 58h8v8h-8zM566 58h8v8h-8zM598 58h8v8h-8zM646 58h8v8h-8zM670 58h8v8h-8zM694 58h8v8h-8zM710 58h8v8h-8zM734 58h8v8h-8zM758 58h8v8h-8zM470 66h8v8h-8zM502 66h8v8h-8zM598 66h8v8h-8zM622 66h8v8h-8zM638 66h8v8h-8zM670 66h8v8h-8zM686 66h8v8h-8zM710 66h8v8h-8zM734 66h8v8h-8zM742 66h8v8h-8zM766 66h8v8h-8zM782 66h8v8h-8zM806 66h8v8h-8zM814 66h8v8h-8zM470 82h8v8h-8zM494 82h8v8h-8zM542 82h8v8h-8zM550 82h8v8h-8zM574 82h8v8h-8zM590 82h8v8h-8zM598 82h8v8h-8zM614 82h8v8h-8zM622 82h8v8h-8zM638 82h8v8h-8zM686 82h8v8h-8zM694 82h8v8h-8zM838 82h8v8h-8zM470 90h8v8h-8zM494 90h8v8h-8zM526 90h8v8h-8zM542 90h8v8h-8zM574 90h8v8h-8zM614 90h8v8h-8zM670 90h8v8h-8zM734 90h8v8h-8zM758 90h8v8h-8zM470 98h8v8h-8zM478 98h8v8h-8zM494 98h8v8h-8zM526 98h8v8h-8zM574 98h8v8h-8zM590 98h8v8h-8zM614 98h8v8h-8zM646 98h8v8h-8zM734 98h8v8h-8zM814 98h8v8h-8zM830 98h8v8h-8zM494 106h8v8h-8zM502 106h8v8h-8zM518 106h8v8h-8zM526 106h8v8h-8zM566 106h8v8h-8zM598 106h8v8h-8zM614 106h8v8h-8zM638 106h8v8h-8zM686 106h8v8h-8zM694 106h8v8h-8zM742 106h8v8h-8zM766 106h8v8h-8zM782 106h8v8h-8zM790 106h8v8h-8zM806 106h8v8h-8zM470 122h8v8h-8zM478 122h8v8h-8zM550 122h8v8h-8zM614 122h8v8h-8zM710 122h8v8h-8zM718 122h8v8h-8zM734 122h8v8h-8zM766 122h8v8h-8zM782 122h8v8h-8zM790 122h8v8h-8zM814 122h8v8h-8zM526 130h8v8h-8zM550 130h8v8h-8zM566 130h8v8h-8zM574 130h8v8h-8zM598 130h8v8h-8zM622 130h8v8h-8zM806 130h8v8h-8zM526 138h8v8h-8zM542 138h8v8h-8zM574 138h8v8h-8zM614 138h8v8h-8zM638 138h8v8h-8zM646 138h8v8h-8zM662 138h8v8h-8zM686 138h8v8h-8zM718 138h8v8h-8zM734 138h8v8h-8zM758 138h8v8h-8zM782 138h8v8h-8zM790 138h8v8h-8zM830 138h8v8h-8zM838 138h8v8h-8zM470 146h8v8h-8zM494 146h8v8h-8zM502 146h8v8h-8zM526 146h8v8h-8zM550 146h8v8h-8zM598 146h8v8h-8zM614 146h8v8h-8zM622 146h8v8h-8zM646 146h8v8h-8zM662 146h8v8h-8zM710 146h8v8h-8zM718 146h8v8h-8zM734 146h8v8h-8zM742 146h8v8h-8zM790 146h8v8h-8zM806 146h8v8h-8zM814 146h8v8h-8zM830 146h8v8h-8zM470 162h8v8h-8zM494 162h8v8h-8zM502 162h8v8h-8zM518 162h8v8h-8zM526 162h8v8h-8zM550 162h8v8h-8zM566 162h8v8h-8zM574 162h8v8h-8zM590 162h8v8h-8zM614 162h8v8h-8zM662 162h8v8h-8zM710 162h8v8h-8zM758 162h8v8h-8zM782 162h8v8h-8zM790 162h8v8h-8zM814 162h8v8h-8zM838 162h8v8h-8zM478 170h8v8h-8zM502 170h8v8h-8zM526 170h8v8h-8zM566 170h8v8h-8zM574 170h8v8h-8zM598 170h8v8h-8zM622 170h8v8h-8zM638 170h8v8h-8zM646 170h8v8h-8zM662 170h8v8h-8zM686 170h8v8h-8zM694 170h8v8h-8zM718 170h8v8h-8zM742 170h8v8h-8zM758 170h8v8h-8zM766 170h8v8h-8zM790 170h8v8h-8zM814 170h8v8h-8zM838 170h8v8h-8zM478 178h8v8h-8zM502 178h8v8h-8zM518 178h8v8h-8zM526 178h8v8h-8zM550 178h8v8h-8zM598 178h8v8h-8zM614 178h8v8h-8zM662 178h8v8h-8zM742 178h8v8h-8zM758 178h8v8h-8zM782 178h8v8h-8zM814 178h8v8h-8zM542 186h8v8h-8zM550 186h8v8h-8zM566 186h8v8h-8zM598 186h8v8h-8zM646 186h8v8h-8zM694 186h8v8h-8zM718 186h8v8h-8zM742 186h8v8h-8zM790 186h8v8h-8zM814 186h8v8h-8zM518 202h8v8h-8zM574 202h8v8h-8zM598 202h8v8h-8zM622 202h8v8h-8zM646 202h8v8h-8zM662 202h8v8h-8zM686 202h8v8h-8zM718 202h8v8h-8zM758 202h8v8h-8zM766 202h8v8h-8zM790 202h8v8h-8zM814 202h8v8h-8zM830 202h8v8h-8zM838 202h8v8h-8zM478 210h8v8h-8zM502 210h8v8h-8zM518 210h8v8h-8zM526 210h8v8h-8zM542 210h8v8h-8zM550 210h8v8h-8zM566 210h8v8h-8zM590 210h8v8h-8zM614 210h8v8h-8zM638 210h8v8h-8zM662 210h8v8h-8zM694 210h8v8h-8zM718 210h8v8h-8zM734 210h8v8h-8zM758 210h8v8h-8zM782 210h8v8h-8zM814 210h8v8h-8zM638 218h8v8h-8zM646 218h8v8h-8zM670 218h8v8h-8zM734 218h8v8h-8zM758 218h8v8h-8zM806 218h8v8h-8zM494 226h8v8h-8zM502 226h8v8h-8zM550 226h8v8h-8zM566 226h8v8h-8zM590 226h8v8h-8zM598 226h8v8h-8zM622 226h8v8h-8zM638 226h8v8h-8zM686 226h8v8h-8zM694 226h8v8h-8zM734 226h8v8h-8zM742 226h8v8h-8zM758 226h8v8h-8zM766 226h8v8h-8zM806 226h8v8h-8zM814 226h8v8h-8zM830 226h8v8h-8zM838 226h8v8h-8zM470 242h8v8h-8zM478 242h8v8h-8zM494 242h8v8h-8zM518 242h8v8h-8zM526 242h8v8h-8zM550 242h8v8h-8zM566 242h8v8h-8zM574 242h8v8h-8zM614 242h8v8h-8zM622 242h8v8h-8zM830 242h8v8h-8zM838 242h8v8h-8zM478 250h8v8h-8zM494 250h8v8h-8zM502 250h8v8h-8zM566 250h8v8h-8zM574 250h8v8h-8zM590 250h8v8h-8zM614 250h8v8h-8zM638 250h8v8h-8zM670 250h8v8h-8zM686 250h8v8h-8zM694 250h8v8h-8zM710 250h8v8h-8zM742 250h8v8h-8zM790 250h8v8h-8zM814 250h8v8h-8zM478 258h8v8h-8zM494 258h8v8h-8zM502 258h8v8h-8zM542 258h8v8h-8zM550 258h8v8h-8zM598 258h8v8h-8zM622 258h8v8h-8zM646 258h8v8h-8zM734 258h8v8h-8zM782 258h8v8h-8zM502 266h8v8h-8zM526 266h8v8h-8zM590 266h8v8h-8zM598 266h8v8h-8zM622 266h8v8h-8zM646 266h8v8h-8zM662 266h8v8h-8zM670 266h8v8h-8zM686 266h8v8h-8zM710 266h8v8h-8zM742 266h8v8h-8zM766 266h8v8h-8zM494 282h8v8h-8zM598 282h8v8h-8zM614 282h8v8h-8zM622 282h8v8h-8zM638 282h8v8h-8zM646 282h8v8h-8zM662 282h8v8h-8zM670 282h8v8h-8zM686 282h8v8h-8zM734 282h8v8h-8zM758 282h8v8h-8zM766 282h8v8h-8zM782 282h8v8h-8zM478 290h8v8h-8zM518 290h8v8h-8zM542 290h8v8h-8zM574 290h8v8h-8zM598 290h8v8h-8zM646 290h8v8h-8zM662 290h8v8h-8zM686 290h8v8h-8zM718 290h8v8h-8zM742 290h8v8h-8zM782 290h8v8h-8zM806 290h8v8h-8zM814 290h8v8h-8zM830 290h8v8h-8zM478 298h8v8h-8zM494 298h8v8h-8zM518 298h8v8h-8zM550 298h8v8h-8zM622 298h8v8h-8zM638 298h8v8h-8zM646 298h8v8h-8zM686 298h8v8h-8zM710 298h8v8h-8zM758 298h8v8h-8zM766 298h8v8h-8zM806 298h8v8h-8zM814 298h8v8h-8zM470 306h8v8h-8zM502 306h8v8h-8zM518 306h8v8h-8zM574 306h8v8h-8zM598 306h8v8h-8zM614 306h8v8h-8zM622 306h8v8h-8zM638 306h8v8h-8zM662 306h8v8h-8zM670 306h8v8h-8zM686 306h8v8h-8zM710 306h8v8h-8zM718 306h8v8h-8zM742 306h8v8h-8zM766 306h8v8h-8zM790 306h8v8h-8zM806 306h8v8h-8zM814 306h8v8h-8zM622 322h8v8h-8zM670 322h8v8h-8zM686 322h8v8h-8zM734 322h8v8h-8zM758 322h8v8h-8zM766 322h8v8h-8zM782 322h8v8h-8zM790 322h8v8h-8zM814 322h8v8h-8zM838 322h8v8h-8zM502 330h8v8h-8zM550 330h8v8h-8zM566 330h8v8h-8zM598 330h8v8h-8zM646 330h8v8h-8zM670 330h8v8h-8zM710 330h8v8h-8zM734 330h8v8h-8zM766 330h8v8h-8zM782 330h8v8h-8zM830 330h8v8h-8zM502 338h8v8h-8zM550 338h8v8h-8zM574 338h8v8h-8zM710 338h8v8h-8zM758 338h8v8h-8zM766 338h8v8h-8zM782 338h8v8h-8zM814 338h8v8h-8zM502 346h8v8h-8zM526 346h8v8h-8zM542 346h8v8h-8zM550 346h8v8h-8zM574 346h8v8h-8zM590 346h8v8h-8zM622 346h8v8h-8zM638 346h8v8h-8zM686 346h8v8h-8zM710 346h8v8h-8zM734 346h8v8h-8zM758 346h8v8h-8zM766 346h8v8h-8zM782 346h8v8h-8zM502 362h8v8h-8zM518 362h8v8h-8zM526 362h8v8h-8zM542 362h8v8h-8zM574 362h8v8h-8zM598 362h8v8h-8zM622 362h8v8h-8zM638 362h8v8h-8zM646 362h8v8h-8zM670 362h8v8h-8zM718 362h8v8h-8zM742 362h8v8h-8zM782 362h8v8h-8zM790 362h8v8h-8zM814 362h8v8h-8zM838 362h8v8h-8zM694 370h8v8h-8zM710 370h8v8h-8zM742 370h8v8h-8zM478 378h8v8h-8zM502 378h8v8h-8zM526 378h8v8h-8zM542 378h8v8h-8zM550 378h8v8h-8zM574 378h8v8h-8zM590 378h8v8h-8zM598 378h8v8h-8zM622 378h8v8h-8zM638 378h8v8h-8zM646 378h8v8h-8zM662 378h8v8h-8zM686 378h8v8h-8zM694 378h8v8h-8zM710 378h8v8h-8zM734 378h8v8h-8zM742 378h8v8h-8zM758 378h8v8h-8zM766 378h8v8h-8zM782 378h8v8h-8zM790 378h8v8h-8zM806 378h8v8h-8zM814 378h8v8h-8zM838 378h8v8h-8zM478 386h8v8h-8zM494 386h8v8h-8zM550 386h8v8h-8zM574 386h8v8h-8zM614 386h8v8h-8zM766 386h8v8h-8zM782 386h8v8h-8zM806 386h8v8h-8zM830 386h8v8h-8zM646 402h8v8h-8zM670 402h8v8h-8zM694 402h8v8h-8zM830 402h8v8h-8zM478 410h8v8h-8zM574 410h8v8h-8zM614 410h8v8h-8zM622 410h8v8h-8zM670 410h8v8h-8zM686 410h8v8h-8zM710 410h8v8h-8zM718 410h8v8h-8zM742 410h8v8h-8zM766 410h8v8h-8zM782 410h8v8h-8zM790 410h8v8h-8zM806 410h8v8h-8zM470 418h8v8h-8zM478 418h8v8h-8zM590 418h8v8h-8zM598 418h8v8h-8zM622 418h8v8h-8zM646 418h8v8h-8zM670 418h8v8h-8zM814 418h8v8h-8zM830 418h8v8h-8z"/><path class="b2" d="M502 58h8v8h-8zM574 58h8v8h-8zM718 66h8v8h-8zM478 82h8v8h-8zM526 82h8v8h-8zM502 90h8v8h-8zM566 90h8v8h-8zM622 90h8v8h-8zM686 90h8v8h-8zM766 90h8v8h-8zM790 90h8v8h-8zM838 90h8v8h-8zM550 98h8v8h-8zM566 98h8v8h-8zM662 98h8v8h-8zM574 106h8v8h-8zM590 106h8v8h-8zM622 106h8v8h-8zM670 106h8v8h-8zM758 106h8v8h-8zM566 122h8v8h-8zM742 122h8v8h-8zM758 122h8v8h-8zM494 130h8v8h-8zM614 130h8v8h-8zM638 130h8v8h-8zM646 130h8v8h-8zM766 138h8v8h-8zM806 138h8v8h-8zM814 138h8v8h-8zM542 146h8v8h-8zM670 146h8v8h-8zM766 146h8v8h-8zM782 146h8v8h-8zM542 162h8v8h-8zM598 162h8v8h-8zM622 162h8v8h-8zM718 162h8v8h-8zM806 170h8v8h-8zM470 178h8v8h-8zM638 178h8v8h-8zM670 178h8v8h-8zM686 178h8v8h-8zM718 178h8v8h-8zM766 178h8v8h-8zM790 178h8v8h-8zM838 178h8v8h-8zM574 186h8v8h-8zM638 186h8v8h-8zM758 186h8v8h-8zM766 186h8v8h-8zM782 186h8v8h-8zM838 186h8v8h-8zM470 202h8v8h-8zM494 202h8v8h-8zM566 202h8v8h-8zM710 202h8v8h-8zM734 202h8v8h-8zM790 210h8v8h-8zM662 218h8v8h-8zM694 218h8v8h-8zM718 218h8v8h-8zM614 226h8v8h-8zM646 226h8v8h-8zM710 226h8v8h-8zM782 226h8v8h-8zM542 242h8v8h-8zM590 242h8v8h-8zM470 250h8v8h-8zM550 250h8v8h-8zM598 250h8v8h-8zM646 250h8v8h-8zM614 258h8v8h-8zM638 258h8v8h-8zM662 258h8v8h-8zM694 258h8v8h-8zM718 258h8v8h-8zM790 258h8v8h-8zM830 258h8v8h-8zM478 266h8v8h-8zM494 266h8v8h-8zM518 266h8v8h-8zM470 282h8v8h-8zM718 282h8v8h-8zM742 282h8v8h-8zM502 290h8v8h-8zM574 298h8v8h-8zM590 298h8v8h-8zM598 298h8v8h-8zM662 298h8v8h-8zM694 298h8v8h-8zM478 306h8v8h-8zM550 306h8v8h-8zM566 306h8v8h-8zM734 306h8v8h-8zM638 322h8v8h-8zM646 322h8v8h-8zM590 330h8v8h-8zM638 330h8v8h-8zM686 330h8v8h-8zM694 330h8v8h-8zM790 330h8v8h-8zM806 330h8v8h-8zM814 330h8v8h-8zM478 338h8v8h-8zM494 338h8v8h-8zM638 338h8v8h-8zM686 338h8v8h-8zM718 338h8v8h-8zM742 338h8v8h-8zM478 346h8v8h-8zM494 346h8v8h-8zM518 346h8v8h-8zM670 346h8v8h-8zM742 346h8v8h-8zM470 362h8v8h-8zM478 362h8v8h-8zM494 362h8v8h-8zM686 362h8v8h-8zM806 362h8v8h-8zM830 362h8v8h-8zM550 370h8v8h-8zM646 370h8v8h-8zM614 378h8v8h-8zM566 386h8v8h-8zM790 386h8v8h-8zM478 402h8v8h-8zM686 402h8v8h-8zM710 402h8v8h-8zM814 402h8v8h-8zM838 402h8v8h-8zM598 410h8v8h-8zM638 410h8v8h-8zM662 410h8v8h-8zM758 410h8v8h-8zM814 410h8v8h-8zM838 410h8v8h-8zM574 418h8v8h-8zM614 418h8v8h-8z"/><path class="b3" d="M614 42h8v8h-8zM526 50h8v8h-8zM574 50h8v8h-8zM590 50h8v8h-8zM646 50h8v8h-8zM718 50h8v8h-8zM758 50h8v8h-8zM814 50h8v8h-8zM526 58h8v8h-8zM590 58h8v8h-8zM638 58h8v8h-8zM742 58h8v8h-8zM478 66h8v8h-8zM494 66h8v8h-8zM518 66h8v8h-8zM662 66h8v8h-8zM694 66h8v8h-8zM758 66h8v8h-8zM790 66h8v8h-8zM518 82h8v8h-8zM662 82h8v8h-8zM790 82h8v8h-8zM814 82h8v8h-8zM478 90h8v8h-8zM550 90h8v8h-8zM598 90h8v8h-8zM638 90h8v8h-8zM694 90h8v8h-8zM710 90h8v8h-8zM718 90h8v8h-8zM742 90h8v8h-8zM806 90h8v8h-8zM814 90h8v8h-8zM830 90h8v8h-8zM542 98h8v8h-8zM598 98h8v8h-8zM790 98h8v8h-8zM478 106h8v8h-8zM542 106h8v8h-8zM550 106h8v8h-8zM646 106h8v8h-8zM662 106h8v8h-8zM710 106h8v8h-8zM734 106h8v8h-8zM814 106h8v8h-8zM830 106h8v8h-8zM542 122h8v8h-8zM574 122h8v8h-8zM806 122h8v8h-8zM478 130h8v8h-8zM542 130h8v8h-8zM790 130h8v8h-8zM814 130h8v8h-8zM598 138h8v8h-8zM622 138h8v8h-8zM670 138h8v8h-8zM694 138h8v8h-8zM710 138h8v8h-8zM742 138h8v8h-8zM478 146h8v8h-8zM574 146h8v8h-8zM590 146h8v8h-8zM638 146h8v8h-8zM686 146h8v8h-8zM838 146h8v8h-8zM638 162h8v8h-8zM646 162h8v8h-8zM670 162h8v8h-8zM686 162h8v8h-8zM694 162h8v8h-8zM734 162h8v8h-8zM766 162h8v8h-8zM470 170h8v8h-8zM494 170h8v8h-8zM518 170h8v8h-8zM542 170h8v8h-8zM550 170h8v8h-8zM590 170h8v8h-8zM614 170h8v8h-8zM670 170h8v8h-8zM710 170h8v8h-8zM734 170h8v8h-8zM782 170h8v8h-8zM542 178h8v8h-8zM694 178h8v8h-8zM710 178h8v8h-8zM734 178h8v8h-8zM806 178h8v8h-8zM830 178h8v8h-8zM526 186h8v8h-8zM614 186h8v8h-8zM662 186h8v8h-8zM670 186h8v8h-8zM686 186h8v8h-8zM710 186h8v8h-8zM734 186h8v8h-8zM806 186h8v8h-8zM830 186h8v8h-8zM502 202h8v8h-8zM526 202h8v8h-8zM550 202h8v8h-8zM590 202h8v8h-8zM614 202h8v8h-8zM638 202h8v8h-8zM694 202h8v8h-8zM782 202h8v8h-8zM806 202h8v8h-8zM470 210h8v8h-8zM574 210h8v8h-8zM598 210h8v8h-8zM686 210h8v8h-8zM710 210h8v8h-8zM742 210h8v8h-8zM766 210h8v8h-8zM806 210h8v8h-8zM838 210h8v8h-8zM526 218h8v8h-8zM710 218h8v8h-8zM790 218h8v8h-8zM470 226h8v8h-8zM478 226h8v8h-8zM518 226h8v8h-8zM526 226h8v8h-8zM542 226h8v8h-8zM662 226h8v8h-8zM670 226h8v8h-8zM718 226h8v8h-8zM638 242h8v8h-8zM518 250h8v8h-8zM622 250h8v8h-8zM718 250h8v8h-8zM758 250h8v8h-8zM830 250h8v8h-8zM590 258h8v8h-8zM686 258h8v8h-8zM710 258h8v8h-8zM758 258h8v8h-8zM766 258h8v8h-8zM806 258h8v8h-8zM814 258h8v8h-8zM838 258h8v8h-8zM542 266h8v8h-8zM566 266h8v8h-8zM638 266h8v8h-8zM734 266h8v8h-8zM782 266h8v8h-8zM710 282h8v8h-8zM470 290h8v8h-8zM526 290h8v8h-8zM566 290h8v8h-8zM590 290h8v8h-8zM638 290h8v8h-8zM670 290h8v8h-8zM694 290h8v8h-8zM734 290h8v8h-8zM758 290h8v8h-8zM766 290h8v8h-8zM502 298h8v8h-8zM526 298h8v8h-8zM566 298h8v8h-8zM614 298h8v8h-8zM670 298h8v8h-8zM718 298h8v8h-8zM782 298h8v8h-8zM790 298h8v8h-8zM830 298h8v8h-8zM838 298h8v8h-8zM494 306h8v8h-8zM526 306h8v8h-8zM542 306h8v8h-8zM694 306h8v8h-8zM758 306h8v8h-8zM782 306h8v8h-8zM598 322h8v8h-8zM694 322h8v8h-8zM710 322h8v8h-8zM742 322h8v8h-8zM806 322h8v8h-8zM830 322h8v8h-8zM478 330h8v8h-8zM526 330h8v8h-8zM574 330h8v8h-8zM614 330h8v8h-8zM622 330h8v8h-8zM718 330h8v8h-8zM742 330h8v8h-8zM758 330h8v8h-8zM838 330h8v8h-8zM518 338h8v8h-8zM542 338h8v8h-8zM590 338h8v8h-8zM598 338h8v8h-8zM622 338h8v8h-8zM646 338h8v8h-8zM662 338h8v8h-8zM670 338h8v8h-8zM734 338h8v8h-8zM806 338h8v8h-8zM470 346h8v8h-8zM566 346h8v8h-8zM598 346h8v8h-8zM614 346h8v8h-8zM646 346h8v8h-8zM662 346h8v8h-8zM694 346h8v8h-8zM718 346h8v8h-8zM550 362h8v8h-8zM590 362h8v8h-8zM614 362h8v8h-8zM662 362h8v8h-8zM694 362h8v8h-8zM710 362h8v8h-8zM734 362h8v8h-8zM670 370h8v8h-8zM734 370h8v8h-8zM470 378h8v8h-8zM518 378h8v8h-8zM566 378h8v8h-8zM718 378h8v8h-8zM830 378h8v8h-8zM598 386h8v8h-8zM814 386h8v8h-8zM518 402h8v8h-8zM622 402h8v8h-8zM638 402h8v8h-8zM662 402h8v8h-8zM470 410h8v8h-8zM646 410h8v8h-8zM694 410h8v8h-8zM734 410h8v8h-8zM662 418h8v8h-8z"/><path class="b4" d="M766 42h8v8h-8zM782 50h8v8h-8zM622 58h8v8h-8zM718 58h8v8h-8zM590 66h8v8h-8zM502 82h8v8h-8zM646 90h8v8h-8zM662 90h8v8h-8zM718 106h8v8h-8zM470 130h8v8h-8zM502 130h8v8h-8zM590 138h8v8h-8zM518 146h8v8h-8zM694 146h8v8h-8zM758 146h8v8h-8zM478 162h8v8h-8zM742 162h8v8h-8zM574 178h8v8h-8zM518 186h8v8h-8zM478 202h8v8h-8zM670 202h8v8h-8zM622 210h8v8h-8zM646 210h8v8h-8zM670 210h8v8h-8zM622 218h8v8h-8zM574 226h8v8h-8zM502 242h8v8h-8zM662 250h8v8h-8zM806 250h8v8h-8zM526 258h8v8h-8zM574 258h8v8h-8zM670 258h8v8h-8zM742 258h8v8h-8zM550 266h8v8h-8zM574 266h8v8h-8zM694 266h8v8h-8zM478 282h8v8h-8zM694 282h8v8h-8zM494 290h8v8h-8zM550 290h8v8h-8zM790 290h8v8h-8zM542 298h8v8h-8zM734 298h8v8h-8zM646 306h8v8h-8zM662 322h8v8h-8zM718 322h8v8h-8zM494 330h8v8h-8zM526 338h8v8h-8zM614 338h8v8h-8zM790 338h8v8h-8zM758 362h8v8h-8zM566 370h8v8h-8zM662 370h8v8h-8zM718 370h8v8h-8zM502 386h8v8h-8zM470 402h8v8h-8zM830 410h8v8h-8z"/><path class="b5" d="M758 42h8v8h-8zM614 50h8v8h-8zM622 50h8v8h-8zM662 50h8v8h-8zM662 58h8v8h-8zM526 66h8v8h-8zM614 66h8v8h-8zM646 66h8v8h-8zM566 82h8v8h-8zM646 82h8v8h-8zM670 82h8v8h-8zM518 90h8v8h-8zM718 98h8v8h-8zM838 98h8v8h-8zM590 122h8v8h-8zM566 146h8v8h-8zM806 162h8v8h-8zM622 178h8v8h-8zM646 178h8v8h-8zM590 186h8v8h-8zM622 186h8v8h-8zM542 202h8v8h-8zM742 202h8v8h-8zM494 210h8v8h-8zM686 218h8v8h-8zM742 218h8v8h-8zM790 226h8v8h-8zM814 242h8v8h-8zM470 258h8v8h-8zM566 258h8v8h-8zM470 266h8v8h-8zM718 266h8v8h-8zM614 290h8v8h-8zM622 290h8v8h-8zM710 290h8v8h-8zM838 290h8v8h-8zM742 298h8v8h-8zM590 306h8v8h-8zM542 330h8v8h-8zM662 330h8v8h-8zM470 338h8v8h-8zM694 338h8v8h-8zM566 362h8v8h-8zM622 370h8v8h-8zM670 378h8v8h-8zM758 386h8v8h-8zM838 386h8v8h-8zM806 402h8v8h-8z"/><text class="lab" x="906" y="17">seed dfbf91&#8230;</text><g opacity="0.55"><rect class="wall" x="906" y="26" width="416" height="8"/><rect class="wall" x="906" y="434" width="416" height="8"/><rect class="wall" x="906" y="34" width="8" height="400"/><rect class="wall" x="1314" y="34" width="8" height="400"/></g><path class="b1" d="M1066 42h8v8h-8zM1114 42h8v8h-8zM1122 42h8v8h-8zM1146 42h8v8h-8zM1186 42h8v8h-8zM1210 42h8v8h-8zM1218 42h8v8h-8zM978 50h8v8h-8zM1026 50h8v8h-8zM1050 50h8v8h-8zM1090 50h8v8h-8zM1098 50h8v8h-8zM1170 50h8v8h-8zM1234 50h8v8h-8zM1242 50h8v8h-8zM1266 50h8v8h-8zM1282 50h8v8h-8zM1290 50h8v8h-8zM978 58h8v8h-8zM1018 58h8v8h-8zM1026 58h8v8h-8zM1042 58h8v8h-8zM1050 58h8v8h-8zM1074 58h8v8h-8zM1098 58h8v8h-8zM1114 58h8v8h-8zM1122 58h8v8h-8zM1146 58h8v8h-8zM1170 58h8v8h-8zM1194 58h8v8h-8zM946 66h8v8h-8zM954 66h8v8h-8zM970 66h8v8h-8zM978 66h8v8h-8zM1042 66h8v8h-8zM1050 66h8v8h-8zM1098 66h8v8h-8zM1146 66h8v8h-8zM1170 66h8v8h-8zM1186 66h8v8h-8zM1210 66h8v8h-8zM1218 66h8v8h-8zM1234 66h8v8h-8zM1242 66h8v8h-8zM1266 66h8v8h-8zM930 82h8v8h-8zM954 82h8v8h-8zM978 82h8v8h-8zM1002 82h8v8h-8zM1042 82h8v8h-8zM1074 82h8v8h-8zM1098 82h8v8h-8zM1114 82h8v8h-8zM1266 82h8v8h-8zM930 90h8v8h-8zM946 90h8v8h-8zM954 90h8v8h-8zM994 90h8v8h-8zM1002 90h8v8h-8zM1018 90h8v8h-8zM1026 90h8v8h-8zM1050 90h8v8h-8zM1074 90h8v8h-8zM1098 90h8v8h-8zM1122 90h8v8h-8zM1146 90h8v8h-8zM1170 90h8v8h-8zM1186 90h8v8h-8zM1194 90h8v8h-8zM1218 90h8v8h-8zM1266 90h8v8h-8zM930 98h8v8h-8zM978 98h8v8h-8zM1042 98h8v8h-8zM1050 98h8v8h-8zM1114 98h8v8h-8zM1186 98h8v8h-8zM1282 98h8v8h-8zM946 106h8v8h-8zM954 106h8v8h-8zM994 106h8v8h-8zM1042 106h8v8h-8zM1066 106h8v8h-8zM1090 106h8v8h-8zM1098 106h8v8h-8zM1138 106h8v8h-8zM1186 106h8v8h-8zM1218 106h8v8h-8zM1242 106h8v8h-8zM1266 106h8v8h-8zM1282 106h8v8h-8zM930 122h8v8h-8zM994 122h8v8h-8zM1002 122h8v8h-8zM1018 122h8v8h-8zM1026 122h8v8h-8zM1042 122h8v8h-8zM1186 122h8v8h-8zM1194 122h8v8h-8zM1234 122h8v8h-8zM1242 122h8v8h-8zM1258 122h8v8h-8zM922 130h8v8h-8zM954 130h8v8h-8zM1018 130h8v8h-8zM1050 130h8v8h-8zM1066 130h8v8h-8zM1098 130h8v8h-8zM1242 130h8v8h-8zM1266 130h8v8h-8zM978 138h8v8h-8zM1050 138h8v8h-8zM1074 138h8v8h-8zM1114 138h8v8h-8zM1122 138h8v8h-8zM1162 138h8v8h-8zM1186 138h8v8h-8zM1210 138h8v8h-8zM1218 138h8v8h-8zM1234 138h8v8h-8zM1282 138h8v8h-8zM970 146h8v8h-8zM1026 146h8v8h-8zM1066 146h8v8h-8zM1074 146h8v8h-8zM1098 146h8v8h-8zM1114 146h8v8h-8zM1122 146h8v8h-8zM1146 146h8v8h-8zM1170 146h8v8h-8zM1194 146h8v8h-8zM1210 146h8v8h-8zM1242 146h8v8h-8zM1282 146h8v8h-8zM1018 162h8v8h-8zM1026 162h8v8h-8zM1042 162h8v8h-8zM1050 162h8v8h-8zM1066 162h8v8h-8zM1074 162h8v8h-8zM1114 162h8v8h-8zM1122 162h8v8h-8zM1138 162h8v8h-8zM1186 162h8v8h-8zM1194 162h8v8h-8zM1234 162h8v8h-8zM1242 162h8v8h-8zM1258 162h8v8h-8zM954 170h8v8h-8zM970 170h8v8h-8zM978 170h8v8h-8zM994 170h8v8h-8zM1018 170h8v8h-8zM1042 170h8v8h-8zM1066 170h8v8h-8zM1090 170h8v8h-8zM1114 170h8v8h-8zM1146 170h8v8h-8zM1210 170h8v8h-8zM1218 170h8v8h-8zM1234 170h8v8h-8zM1242 170h8v8h-8zM1266 170h8v8h-8zM930 178h8v8h-8zM970 178h8v8h-8zM978 178h8v8h-8zM994 178h8v8h-8zM1066 178h8v8h-8zM1074 178h8v8h-8zM1090 178h8v8h-8zM1122 178h8v8h-8zM1146 178h8v8h-8zM1162 178h8v8h-8zM1186 178h8v8h-8zM1210 178h8v8h-8zM1242 178h8v8h-8zM1258 178h8v8h-8zM1282 178h8v8h-8zM978 186h8v8h-8zM1002 186h8v8h-8zM1026 186h8v8h-8zM1066 186h8v8h-8zM1098 186h8v8h-8zM1114 186h8v8h-8zM1122 186h8v8h-8zM1146 186h8v8h-8zM1162 186h8v8h-8zM1186 186h8v8h-8zM1258 186h8v8h-8zM1266 186h8v8h-8zM1002 202h8v8h-8zM1018 202h8v8h-8zM1066 202h8v8h-8zM1074 202h8v8h-8zM1098 202h8v8h-8zM1114 202h8v8h-8zM1122 202h8v8h-8zM1138 202h8v8h-8zM1170 202h8v8h-8zM1186 202h8v8h-8zM1194 202h8v8h-8zM1210 202h8v8h-8zM1218 202h8v8h-8zM1242 202h8v8h-8zM1258 202h8v8h-8zM1266 202h8v8h-8zM954 210h8v8h-8zM970 210h8v8h-8zM978 210h8v8h-8zM994 210h8v8h-8zM1018 210h8v8h-8zM1066 210h8v8h-8zM1098 210h8v8h-8zM1114 210h8v8h-8zM1122 210h8v8h-8zM1162 210h8v8h-8zM1194 210h8v8h-8zM1210 210h8v8h-8zM1218 210h8v8h-8zM1258 210h8v8h-8zM1290 210h8v8h-8zM978 218h8v8h-8zM1074 218h8v8h-8zM1090 218h8v8h-8zM1098 218h8v8h-8zM1114 218h8v8h-8zM1122 218h8v8h-8zM1186 218h8v8h-8zM978 226h8v8h-8zM994 226h8v8h-8zM1018 226h8v8h-8zM1042 226h8v8h-8zM1098 226h8v8h-8zM1138 226h8v8h-8zM1170 226h8v8h-8zM1210 226h8v8h-8zM1218 226h8v8h-8zM1234 226h8v8h-8zM1266 226h8v8h-8zM1282 226h8v8h-8zM1290 226h8v8h-8zM954 242h8v8h-8zM970 242h8v8h-8zM978 242h8v8h-8zM994 242h8v8h-8zM1026 242h8v8h-8zM1066 242h8v8h-8zM1090 242h8v8h-8zM1266 242h8v8h-8zM1282 242h8v8h-8zM930 250h8v8h-8zM946 250h8v8h-8zM954 250h8v8h-8zM1002 250h8v8h-8zM1026 250h8v8h-8zM1042 250h8v8h-8zM1050 250h8v8h-8zM1074 250h8v8h-8zM1090 250h8v8h-8zM1114 250h8v8h-8zM1138 250h8v8h-8zM1146 250h8v8h-8zM1162 250h8v8h-8zM1170 250h8v8h-8zM1242 250h8v8h-8zM1258 250h8v8h-8zM1266 250h8v8h-8zM1282 250h8v8h-8zM930 258h8v8h-8zM954 258h8v8h-8zM1050 258h8v8h-8zM1074 258h8v8h-8zM1114 258h8v8h-8zM1122 258h8v8h-8zM1138 258h8v8h-8zM1146 258h8v8h-8zM1170 258h8v8h-8zM1210 258h8v8h-8zM1242 258h8v8h-8zM1258 258h8v8h-8zM1266 258h8v8h-8zM1282 258h8v8h-8zM1290 258h8v8h-8zM970 266h8v8h-8zM978 266h8v8h-8zM1098 266h8v8h-8zM1114 266h8v8h-8zM1138 266h8v8h-8zM1146 266h8v8h-8zM1162 266h8v8h-8zM1170 266h8v8h-8zM1186 266h8v8h-8zM1218 266h8v8h-8zM946 282h8v8h-8zM1090 282h8v8h-8zM1114 282h8v8h-8zM1122 282h8v8h-8zM1146 282h8v8h-8zM1162 282h8v8h-8zM1186 282h8v8h-8zM1194 282h8v8h-8zM1218 282h8v8h-8zM1234 282h8v8h-8zM922 290h8v8h-8zM930 290h8v8h-8zM1002 290h8v8h-8zM1026 290h8v8h-8zM1042 290h8v8h-8zM1066 290h8v8h-8zM1074 290h8v8h-8zM1090 290h8v8h-8zM1114 290h8v8h-8zM1138 290h8v8h-8zM1162 290h8v8h-8zM1194 290h8v8h-8zM1218 290h8v8h-8zM1258 290h8v8h-8zM1282 290h8v8h-8zM954 298h8v8h-8zM970 298h8v8h-8zM994 298h8v8h-8zM1002 298h8v8h-8zM1026 298h8v8h-8zM1042 298h8v8h-8zM1074 298h8v8h-8zM1090 298h8v8h-8zM1122 298h8v8h-8zM1138 298h8v8h-8zM1146 298h8v8h-8zM1210 298h8v8h-8zM1234 298h8v8h-8zM1266 298h8v8h-8zM1282 298h8v8h-8zM1290 298h8v8h-8zM930 306h8v8h-8zM946 306h8v8h-8zM970 306h8v8h-8zM978 306h8v8h-8zM994 306h8v8h-8zM1002 306h8v8h-8zM1026 306h8v8h-8zM1042 306h8v8h-8zM1050 306h8v8h-8zM1066 306h8v8h-8zM1114 306h8v8h-8zM1162 306h8v8h-8zM1170 306h8v8h-8zM1194 306h8v8h-8zM1210 306h8v8h-8zM1218 306h8v8h-8zM1242 306h8v8h-8zM1266 306h8v8h-8zM1074 322h8v8h-8zM1090 322h8v8h-8zM1122 322h8v8h-8zM1146 322h8v8h-8zM1170 322h8v8h-8zM1194 322h8v8h-8zM1242 322h8v8h-8zM1258 322h8v8h-8zM1266 322h8v8h-8zM946 330h8v8h-8zM954 330h8v8h-8zM978 330h8v8h-8zM1002 330h8v8h-8zM1018 330h8v8h-8zM1050 330h8v8h-8zM1098 330h8v8h-8zM1138 330h8v8h-8zM1170 330h8v8h-8zM1266 330h8v8h-8zM1282 330h8v8h-8zM1290 330h8v8h-8zM922 338h8v8h-8zM946 338h8v8h-8zM954 338h8v8h-8zM978 338h8v8h-8zM994 338h8v8h-8zM1066 338h8v8h-8zM1098 338h8v8h-8zM1114 338h8v8h-8zM1122 338h8v8h-8zM1146 338h8v8h-8zM1162 338h8v8h-8zM1170 338h8v8h-8zM1194 338h8v8h-8zM1210 338h8v8h-8zM1218 338h8v8h-8zM1258 338h8v8h-8zM1266 338h8v8h-8zM922 346h8v8h-8zM930 346h8v8h-8zM1002 346h8v8h-8zM1026 346h8v8h-8zM1042 346h8v8h-8zM1066 346h8v8h-8zM1090 346h8v8h-8zM1098 346h8v8h-8zM1114 346h8v8h-8zM1122 346h8v8h-8zM1138 346h8v8h-8zM1162 346h8v8h-8zM1186 346h8v8h-8zM1194 346h8v8h-8zM1210 346h8v8h-8zM1234 346h8v8h-8zM930 362h8v8h-8zM954 362h8v8h-8zM978 362h8v8h-8zM1002 362h8v8h-8zM1018 362h8v8h-8zM1026 362h8v8h-8zM1066 362h8v8h-8zM1090 362h8v8h-8zM1114 362h8v8h-8zM1122 362h8v8h-8zM1138 362h8v8h-8zM1146 362h8v8h-8zM1186 362h8v8h-8zM1194 362h8v8h-8zM1242 362h8v8h-8zM1258 362h8v8h-8zM1290 362h8v8h-8zM1002 370h8v8h-8zM1018 370h8v8h-8zM1074 370h8v8h-8zM1162 370h8v8h-8zM922 378h8v8h-8zM930 378h8v8h-8zM978 378h8v8h-8zM1026 378h8v8h-8zM1050 378h8v8h-8zM1066 378h8v8h-8zM1074 378h8v8h-8zM1090 378h8v8h-8zM1114 378h8v8h-8zM1122 378h8v8h-8zM1170 378h8v8h-8zM1210 378h8v8h-8zM1218 378h8v8h-8zM1258 378h8v8h-8zM946 386h8v8h-8zM954 386h8v8h-8zM1066 386h8v8h-8zM1210 386h8v8h-8zM1234 386h8v8h-8zM1258 386h8v8h-8zM1282 386h8v8h-8zM1290 386h8v8h-8zM930 402h8v8h-8zM970 402h8v8h-8zM1098 402h8v8h-8zM1138 402h8v8h-8zM1146 402h8v8h-8zM1266 402h8v8h-8zM922 410h8v8h-8zM1066 410h8v8h-8zM1090 410h8v8h-8zM1114 410h8v8h-8zM1122 410h8v8h-8zM1138 410h8v8h-8zM1194 410h8v8h-8zM1242 410h8v8h-8zM1282 410h8v8h-8zM1050 418h8v8h-8zM1066 418h8v8h-8zM1266 418h8v8h-8zM1282 418h8v8h-8z"/><path class="b2" d="M1090 42h8v8h-8zM1162 42h8v8h-8zM1066 50h8v8h-8zM1002 58h8v8h-8zM1162 58h8v8h-8zM1186 58h8v8h-8zM1210 58h8v8h-8zM922 66h8v8h-8zM1138 66h8v8h-8zM1122 82h8v8h-8zM1242 82h8v8h-8zM922 90h8v8h-8zM978 90h8v8h-8zM1210 90h8v8h-8zM946 98h8v8h-8zM994 98h8v8h-8zM1002 98h8v8h-8zM1290 98h8v8h-8zM970 106h8v8h-8zM1050 106h8v8h-8zM1074 106h8v8h-8zM1114 106h8v8h-8zM1122 106h8v8h-8zM1146 106h8v8h-8zM1170 106h8v8h-8zM1210 106h8v8h-8zM1170 122h8v8h-8zM1266 122h8v8h-8zM930 130h8v8h-8zM946 130h8v8h-8zM1074 130h8v8h-8zM1258 130h8v8h-8zM1026 138h8v8h-8zM1042 138h8v8h-8zM1138 138h8v8h-8zM1258 138h8v8h-8zM1290 138h8v8h-8zM922 146h8v8h-8zM946 146h8v8h-8zM954 146h8v8h-8zM1042 146h8v8h-8zM1162 146h8v8h-8zM1258 146h8v8h-8zM1266 146h8v8h-8zM1002 162h8v8h-8zM1090 162h8v8h-8zM1162 162h8v8h-8zM1170 162h8v8h-8zM1210 162h8v8h-8zM1218 162h8v8h-8zM1266 162h8v8h-8zM930 170h8v8h-8zM1002 170h8v8h-8zM1122 170h8v8h-8zM1170 170h8v8h-8zM1186 170h8v8h-8zM1258 170h8v8h-8zM1002 178h8v8h-8zM1050 178h8v8h-8zM1114 178h8v8h-8zM1194 178h8v8h-8zM1090 186h8v8h-8zM1138 186h8v8h-8zM1194 186h8v8h-8zM1210 186h8v8h-8zM922 202h8v8h-8zM930 202h8v8h-8zM946 202h8v8h-8zM970 202h8v8h-8zM1042 202h8v8h-8zM1090 202h8v8h-8zM1146 202h8v8h-8zM1050 210h8v8h-8zM1186 210h8v8h-8zM1146 218h8v8h-8zM970 226h8v8h-8zM1026 226h8v8h-8zM1122 226h8v8h-8zM1146 226h8v8h-8zM1162 226h8v8h-8zM1194 226h8v8h-8zM1042 242h8v8h-8zM922 250h8v8h-8zM1122 250h8v8h-8zM994 258h8v8h-8zM1042 258h8v8h-8zM1090 258h8v8h-8zM930 266h8v8h-8zM1090 266h8v8h-8zM1194 266h8v8h-8zM1234 266h8v8h-8zM1050 282h8v8h-8zM1066 282h8v8h-8zM1210 282h8v8h-8zM946 290h8v8h-8zM1122 290h8v8h-8zM1290 290h8v8h-8zM946 298h8v8h-8zM1050 298h8v8h-8zM1258 298h8v8h-8zM1186 306h8v8h-8zM1098 322h8v8h-8zM1162 322h8v8h-8zM1282 322h8v8h-8zM1090 330h8v8h-8zM1114 330h8v8h-8zM1186 330h8v8h-8zM1194 330h8v8h-8zM1210 330h8v8h-8zM1090 338h8v8h-8zM1138 338h8v8h-8zM1186 338h8v8h-8zM1234 338h8v8h-8zM954 346h8v8h-8zM970 346h8v8h-8zM1050 346h8v8h-8zM1042 362h8v8h-8zM1210 362h8v8h-8zM1234 362h8v8h-8zM1266 362h8v8h-8zM1114 370h8v8h-8zM1146 370h8v8h-8zM970 378h8v8h-8zM1002 378h8v8h-8zM1018 378h8v8h-8zM1042 378h8v8h-8zM1162 378h8v8h-8zM1218 386h8v8h-8zM1258 402h8v8h-8zM1098 410h8v8h-8zM1162 410h8v8h-8zM1210 410h8v8h-8zM1266 410h8v8h-8zM922 418h8v8h-8zM1098 418h8v8h-8zM1114 418h8v8h-8zM1122 418h8v8h-8z"/><path class="b3" d="M1074 42h8v8h-8zM1098 42h8v8h-8zM1170 42h8v8h-8zM1290 42h8v8h-8zM1042 50h8v8h-8zM1114 50h8v8h-8zM1186 50h8v8h-8zM1194 50h8v8h-8zM1210 50h8v8h-8zM1218 50h8v8h-8zM1258 50h8v8h-8zM954 58h8v8h-8zM970 58h8v8h-8zM1066 66h8v8h-8zM1074 66h8v8h-8zM1090 66h8v8h-8zM1114 66h8v8h-8zM1162 66h8v8h-8zM922 82h8v8h-8zM946 82h8v8h-8zM994 82h8v8h-8zM1018 82h8v8h-8zM1026 82h8v8h-8zM1050 82h8v8h-8zM1066 82h8v8h-8zM1090 82h8v8h-8zM1146 82h8v8h-8zM1290 82h8v8h-8zM970 90h8v8h-8zM1066 90h8v8h-8zM1090 90h8v8h-8zM1114 90h8v8h-8zM1162 90h8v8h-8zM1242 90h8v8h-8zM1258 90h8v8h-8zM1282 90h8v8h-8zM1290 90h8v8h-8zM922 98h8v8h-8zM1018 98h8v8h-8zM1026 98h8v8h-8zM1170 98h8v8h-8zM930 106h8v8h-8zM1002 106h8v8h-8zM1026 106h8v8h-8zM1162 106h8v8h-8zM1194 106h8v8h-8zM1234 106h8v8h-8zM1258 106h8v8h-8zM922 122h8v8h-8zM1066 122h8v8h-8zM1162 122h8v8h-8zM1210 122h8v8h-8zM1218 122h8v8h-8zM994 130h8v8h-8zM1002 130h8v8h-8zM1026 130h8v8h-8zM994 138h8v8h-8zM1066 138h8v8h-8zM1090 138h8v8h-8zM1146 138h8v8h-8zM1170 138h8v8h-8zM1194 138h8v8h-8zM1242 138h8v8h-8zM978 146h8v8h-8zM994 146h8v8h-8zM1002 146h8v8h-8zM1018 146h8v8h-8zM1050 146h8v8h-8zM1090 146h8v8h-8zM1138 146h8v8h-8zM1186 146h8v8h-8zM1218 146h8v8h-8zM922 162h8v8h-8zM930 162h8v8h-8zM946 162h8v8h-8zM954 162h8v8h-8zM970 162h8v8h-8zM978 162h8v8h-8zM994 162h8v8h-8zM1290 162h8v8h-8zM922 170h8v8h-8zM1026 170h8v8h-8zM1074 170h8v8h-8zM1098 170h8v8h-8zM1138 170h8v8h-8zM1194 170h8v8h-8zM954 178h8v8h-8zM1098 178h8v8h-8zM1138 178h8v8h-8zM1170 178h8v8h-8zM1218 178h8v8h-8zM1290 178h8v8h-8zM994 186h8v8h-8zM1018 186h8v8h-8zM1042 186h8v8h-8zM1050 186h8v8h-8zM1074 186h8v8h-8zM1170 186h8v8h-8zM1218 186h8v8h-8zM1234 186h8v8h-8zM1242 186h8v8h-8zM1282 186h8v8h-8zM954 202h8v8h-8zM978 202h8v8h-8zM994 202h8v8h-8zM1026 202h8v8h-8zM1050 202h8v8h-8zM1162 202h8v8h-8zM1234 202h8v8h-8zM1282 202h8v8h-8zM922 210h8v8h-8zM930 210h8v8h-8zM946 210h8v8h-8zM1026 210h8v8h-8zM1074 210h8v8h-8zM1138 210h8v8h-8zM1146 210h8v8h-8zM1170 210h8v8h-8zM1234 210h8v8h-8zM1266 210h8v8h-8zM1162 218h8v8h-8zM1170 218h8v8h-8zM1242 218h8v8h-8zM922 226h8v8h-8zM946 226h8v8h-8zM1002 226h8v8h-8zM1050 226h8v8h-8zM1066 226h8v8h-8zM1074 226h8v8h-8zM1090 226h8v8h-8zM1186 226h8v8h-8zM1258 226h8v8h-8zM922 242h8v8h-8zM930 242h8v8h-8zM1290 242h8v8h-8zM970 250h8v8h-8zM1018 250h8v8h-8zM1066 250h8v8h-8zM1194 250h8v8h-8zM922 258h8v8h-8zM978 258h8v8h-8zM1002 258h8v8h-8zM1018 258h8v8h-8zM1026 258h8v8h-8zM1098 258h8v8h-8zM1162 258h8v8h-8zM1186 258h8v8h-8zM1218 258h8v8h-8zM1234 258h8v8h-8zM1002 266h8v8h-8zM1042 266h8v8h-8zM1050 266h8v8h-8zM1074 266h8v8h-8zM922 282h8v8h-8zM930 282h8v8h-8zM1074 282h8v8h-8zM1138 282h8v8h-8zM1170 282h8v8h-8zM970 290h8v8h-8zM994 290h8v8h-8zM1018 290h8v8h-8zM1098 290h8v8h-8zM1146 290h8v8h-8zM1170 290h8v8h-8zM1210 290h8v8h-8zM1234 290h8v8h-8zM1242 290h8v8h-8zM1266 290h8v8h-8zM930 298h8v8h-8zM978 298h8v8h-8zM1018 298h8v8h-8zM1066 298h8v8h-8zM1098 298h8v8h-8zM1114 298h8v8h-8zM1162 298h8v8h-8zM1186 298h8v8h-8zM1194 298h8v8h-8zM1218 298h8v8h-8zM1242 298h8v8h-8zM922 306h8v8h-8zM954 306h8v8h-8zM1090 306h8v8h-8zM1098 306h8v8h-8zM1122 306h8v8h-8zM1234 306h8v8h-8zM1258 306h8v8h-8zM1050 322h8v8h-8zM1114 322h8v8h-8zM1138 322h8v8h-8zM1186 322h8v8h-8zM1210 322h8v8h-8zM1218 322h8v8h-8zM1234 322h8v8h-8zM930 330h8v8h-8zM994 330h8v8h-8zM1026 330h8v8h-8zM1074 330h8v8h-8zM1122 330h8v8h-8zM1146 330h8v8h-8zM1162 330h8v8h-8zM1218 330h8v8h-8zM1242 330h8v8h-8zM930 338h8v8h-8zM970 338h8v8h-8zM1002 338h8v8h-8zM1026 338h8v8h-8zM1042 338h8v8h-8zM1050 338h8v8h-8zM1074 338h8v8h-8zM946 346h8v8h-8zM994 346h8v8h-8zM1018 346h8v8h-8zM1074 346h8v8h-8zM1146 346h8v8h-8zM1170 346h8v8h-8zM1218 346h8v8h-8zM922 362h8v8h-8zM970 362h8v8h-8zM994 362h8v8h-8zM1050 362h8v8h-8zM1074 362h8v8h-8zM1098 362h8v8h-8zM1170 362h8v8h-8zM1282 362h8v8h-8zM1098 370h8v8h-8zM1122 370h8v8h-8zM1170 370h8v8h-8zM1186 370h8v8h-8zM1194 370h8v8h-8zM954 378h8v8h-8zM1146 378h8v8h-8zM1186 378h8v8h-8zM1194 378h8v8h-8zM1234 378h8v8h-8zM1242 378h8v8h-8zM1266 378h8v8h-8zM1282 378h8v8h-8zM930 386h8v8h-8zM1002 386h8v8h-8zM1018 386h8v8h-8zM1050 386h8v8h-8zM1242 386h8v8h-8zM1266 386h8v8h-8zM922 402h8v8h-8zM1074 402h8v8h-8zM1090 402h8v8h-8zM1114 402h8v8h-8zM1162 402h8v8h-8zM1290 402h8v8h-8zM930 410h8v8h-8zM1074 410h8v8h-8zM1146 410h8v8h-8zM1186 410h8v8h-8zM1218 410h8v8h-8zM1234 410h8v8h-8zM1258 410h8v8h-8zM1290 410h8v8h-8zM1026 418h8v8h-8zM1042 418h8v8h-8zM1074 418h8v8h-8z"/><path class="b4" d="M1194 42h8v8h-8zM1074 50h8v8h-8zM1090 58h8v8h-8zM930 66h8v8h-8zM1122 66h8v8h-8zM1194 66h8v8h-8zM970 82h8v8h-8zM1138 82h8v8h-8zM1066 98h8v8h-8zM1098 98h8v8h-8zM1242 98h8v8h-8zM1266 98h8v8h-8zM978 106h8v8h-8zM1018 106h8v8h-8zM978 130h8v8h-8zM1266 138h8v8h-8zM930 146h8v8h-8zM1098 162h8v8h-8zM1146 162h8v8h-8zM946 170h8v8h-8zM1162 170h8v8h-8zM1290 170h8v8h-8zM922 178h8v8h-8zM1026 178h8v8h-8zM1266 178h8v8h-8zM1290 186h8v8h-8zM1290 202h8v8h-8zM1002 210h8v8h-8zM1042 210h8v8h-8zM1242 210h8v8h-8zM1138 218h8v8h-8zM1194 218h8v8h-8zM1210 218h8v8h-8zM1258 218h8v8h-8zM930 226h8v8h-8zM1114 226h8v8h-8zM946 242h8v8h-8zM1018 242h8v8h-8zM1074 242h8v8h-8zM1066 258h8v8h-8zM1194 258h8v8h-8zM922 266h8v8h-8zM946 266h8v8h-8zM954 266h8v8h-8zM1026 266h8v8h-8zM1122 266h8v8h-8zM954 290h8v8h-8zM1050 290h8v8h-8zM1186 290h8v8h-8zM1018 306h8v8h-8zM1074 306h8v8h-8zM1138 306h8v8h-8zM1146 306h8v8h-8zM1290 322h8v8h-8zM1042 330h8v8h-8zM1066 330h8v8h-8zM1234 330h8v8h-8zM1258 330h8v8h-8zM1242 338h8v8h-8zM978 346h8v8h-8zM946 362h8v8h-8zM1162 362h8v8h-8zM994 378h8v8h-8zM1290 378h8v8h-8zM1122 402h8v8h-8zM1050 410h8v8h-8zM1170 410h8v8h-8z"/><path class="b5" d="M1138 42h8v8h-8zM1258 66h8v8h-8zM1138 90h8v8h-8zM1090 130h8v8h-8zM1098 138h8v8h-8zM1234 146h8v8h-8zM1290 146h8v8h-8zM1050 170h8v8h-8zM1234 178h8v8h-8zM970 186h8v8h-8zM1090 210h8v8h-8zM954 226h8v8h-8zM1242 226h8v8h-8zM1002 242h8v8h-8zM1098 250h8v8h-8zM1210 250h8v8h-8zM946 258h8v8h-8zM994 266h8v8h-8zM1018 266h8v8h-8zM1098 282h8v8h-8zM978 290h8v8h-8zM1170 298h8v8h-8zM1098 378h8v8h-8zM1138 378h8v8h-8zM1026 386h8v8h-8zM1282 402h8v8h-8zM1026 410h8v8h-8zM930 418h8v8h-8z"/>
  <rect class="b0" x="92" y="460" width="26" height="12"/><rect class="b1" x="122" y="460" width="26" height="12"/><rect class="b2" x="152" y="460" width="26" height="12"/><rect class="b3" x="182" y="460" width="26" height="12"/><rect class="b4" x="212" y="460" width="26" height="12"/><rect class="b5" x="242" y="460" width="26" height="12"/><text class="lab" x="2" y="472">cold</text><text class="lab" x="280" y="472">hot &#8212; expected requests per shelf, shared scale</text>
</svg>