<svg xmlns="http://www.w3.org/2000/svg" class="gridfig" viewBox="0 0 628 662" role="img" aria-label="The empty 52 by 52 warehouse grid: a wall ring with 96 dock cells, interior empty"><style>.gridfig .floor{fill:#FFFFFF}.gridfig .cellline{stroke:#ECEEEA;fill:none;stroke-width:1}.gridfig .wall{fill:#6B7681}.gridfig .dock{fill:#8250DF}.gridfig .lab{fill:#6B7681}.gridfig .b0{fill:#F1EDF9}.gridfig .b1{fill:#DCCFF3}.gridfig .b2{fill:#BCA4E9}.gridfig .b3{fill:#9878DE}.gridfig .b4{fill:#6E46C4}.gridfig .b5{fill:#46258F}.gridfig .lab{font-family:ui-monospace,Menlo,monospace;font-size:13px}.gridfig{background:#FCFCFA}</style>
  <rect class="floor" x="14" y="14" width="600" height="600"/>
  <path class="cellline" d="M14 14v600M14 14h600M26 14v600M14 26h600M38 14v600M14 38h600M50 14v600M14 50h600M62 14v600M14 62h600M74 14v600M14 74h600M86 14v600M14 86h600M98 14v600M14 98h600M110 14v600M14 110h600M122 14v600M14 122h600M134 14v600M14 134h600M146 14v600M14 146h600M158 14v600M14 158h600M170 14v600M14 170h600M182 14v600M14 182h600M194 14v600M14 194h600M206 14v600M14 206h600M218 14v600M14 218h600M230 14v600M14 230h600M242 14v600M14 242h600M254 14v600M14 254h600M266 14v600M14 266h600M278 14v600M14 278h600M290 14v600M14 290h600M302 14v600M14 302h600M314 14v600M14 314h600M326 14v600M14 326h600M338 14v600M14 338h600M350 14v600M14 350h600M362 14v600M14 362h600M374 14v600M14 374h600M386 14v600M14 386h600M398 14v600M14 398h600M410 14v600M14 410h600M422 14v600M14 422h600M434 14v600M14 434h600M446 14v600M14 446h600M458 14v600M14 458h600M470 14v600M14 470h600M482 14v600M14 482h600M494 14v600M14 494h600M506 14v600M14 506h600M518 14v600M14 518h600M530 14v600M14 530h600M542 14v600M14 542h600M554 14v600M14 554h600M566 14v600M14 566h600M578 14v600M14 578h600M590 14v600M14 590h600M602 14v600M14 602h600M614 14v600M14 614h600"/>
  <rect class="wall" x="2" y="2" width="624" height="12"/><rect class="wall" x="2" y="614" width="624" height="12"/><rect class="wall" x="2" y="14" width="12" height="600"/><rect class="wall" x="614" y="14" width="12" height="600"/>
  <rect class="dock" x="38" y="2" width="12" height="12"/><rect class="dock" x="62" y="2" width="12" height="12"/><rect class="dock" x="86" y="2" width="12" height="12"/><rect class="dock" x="110" y="2" width="12" height="12"/><rect class="dock" x="134" y="2" width="12" height="12"/><rect class="dock" x="158" y="2" width="12" height="12"/><rect class="dock" x="182" y="2" width="12" height="12"/><rect class="dock" x="206" y="2" width="12" height="12"/><rect class="dock" x="230" y="2" width="12" height="12"/><rect class="dock" x="254" y="2" width="12" height="12"/><rect class="dock" x="278" y="2" width="12" height="12"/><rect class="dock" x="302" y="2" width="12" height="12"/><rect class="dock" x="326" y="2" width="12" height="12"/><rect class="dock" x="350" y="2" width="12" height="12"/><rect class="dock" x="374" y="2" width="12" height="12"/><rect class="dock" x="398" y="2" width="12" height="12"/><rect class="dock" x="422" y="2" width="12" height="12"/><rect class="dock" x="446" y="2" width="12" height="12"/><rect class="dock" x="470" y="2" width="12" height="12"/><rect class="dock" x="494" y="2" width="12" height="12"/><rect class="dock" x="518" y="2" width="12" height="12"/><rect class="dock" x="542" y="2" width="12" height="12"/><rect class="dock" x="566" y="2" width="12" height="12"/><rect class="dock" x="590" y="2" width="12" height="12"/><rect class="dock" x="26" y="614" width="12" height="12"/><rect class="dock" x="50" y="614" width="12" height="12"/><rect class="dock" x="74" y="614" width="12" height="12"/><rect class="dock" x="98" y="614" width="12" height="12"/><rect class="dock" x="122" y="614" width="12" height="12"/><rect class="dock" x="146" y="614" width="12" height="12"/><rect class="dock" x="170" y="614" width="12" height="12"/><rect class="dock" x="194" y="614" width="12" height="12"/><rect class="dock" x="218" y="614" width="12" height="12"/><rect class="dock" x="242" y="614" width="12" height="12"/><rect class="dock" x="266" y="614" width="12" height="12"/><rect class="dock" x="290" y="614" width="12" height="12"/><rect class="dock" x="314" y="614" width="12" height="12"/><rect class="dock" x="338" y="614" width="12" height="12"/><rect class="dock" x="362" y="614" width="12" height="12"/><rect class="dock" x="386" y="614" width="12" height="12"/><rect class="dock" x="410" y="614" width="12" height="12"/><rect class="dock" x="434" y="614" width="12" height="12"/><rect class="dock" x="458" y="614" width="12" height="12"/><rect class="dock" x="482" y="614" width="12" height="12"/><rect class="dock" x="506" y="614" width="12" height="12"/><rect class="dock" x="530" y="614" width="12" height="12"/><rect class="dock" x="554" y="614" width="12" height="12"/><rect class="dock" x="578" y="614" width="12" height="12"/><rect class="dock" x="2" y="26" width="12" height="12"/><rect class="dock" x="2" y="50" width="12" height="12"/><rect class="dock" x="2" y="74" width="12" height="12"/><rect class="dock" x="2" y="98" width="12" height="12"/><rect class="dock" x="2" y="122" width="12" height="12"/><rect class="dock" x="2" y="146" width="12" height="12"/><rect class="dock" x="2" y="170" width="12" height="12"/><rect class="dock" x="2" y="194" width="12" height="12"/><rect class="dock" x="2" y="218" width="12" height="12"/><rect class="dock" x="2" y="242" width="12" height="12"/><rect class="dock" x="2" y="266" width="12" height="12"/><rect class="dock" x="2" y="290" width="12" height="12"/><rect class="dock" x="2" y="314" width="12" height="12"/><rect class="dock" x="2" y="338" width="12" height="12"/><rect class="dock" x="2" y="362" width="12" height="12"/><rect class="dock" x="2" y="386" width="12" height="12"/><rect class="dock" x="2" y="410" width="12" height="12"/><rect class="dock" x="2" y="434" width="12" height="12"/><rect class="dock" x="2" y="458" width="12" height="12"/><rect class="dock" x="2" y="482" width="12" height="12"/><rect class="dock" x="2" y="506" width="12" height="12"/><rect class="dock" x="2" y="530" width="12" height="12"/><rect class="dock" x="2" y="554" width="12" height="12"/><rect class="dock" x="2" y="578" width="12" height="12"/><rect class="dock" x="614" y="38" width="12" height="12"/><rect class="dock" x="614" y="62" width="12" height="12"/><rect class="dock" x="614" y="86" width="12" height="12"/><rect class="dock" x="614" y="110" width="12" height="12"/><rect class="dock" x="614" y="134" width="12" height="12"/><rect class="dock" x="614" y="158" width="12" height="12"/><rect class="dock" x="614" y="182" width="12" height="12"/><rect class="dock" x="614" y="206" width="12" height="12"/><rect class="dock" x="614" y="230" width="12" height="12"/><rect class="dock" x="614" y="254" width="12" height="12"/><rect class="dock" x="614" y="278" width="12" height="12"/><rect class="dock" x="614" y="302" width="12" height="12"/><rect class="dock" x="614" y="326" width="12" height="12"/><rect class="dock" x="614" y="350" width="12" height="12"/><rect class="dock" x="614" y="374" width="12" height="12"/><rect class="dock" x="614" y="398" width="12" height="12"/><rect class="dock" x="614" y="422" width="12" height="12"/><rect class="dock" x="614" y="446" width="12" height="12"/><rect class="dock" x="614" y="470" width="12" height="12"/><rect class="dock" x="614" y="494" width="12" height="12"/><rect class="dock" x="614" y="518" width="12" height="12"/><rect class="dock" x="614" y="542" width="12" height="12"/><rect class="dock" x="614" y="566" width="12" height="12"/><rect class="dock" x="614" y="590" width="12" height="12"/>
  <rect class="dock" x="2" y="637" width="12" height="12"/>
  <text class="lab" x="20" y="648">dock &#215; 96 (one per robot)</text>
  <rect class="wall" x="232" y="637" width="12" height="12"/>
  <text class="lab" x="250" y="648">wall</text>
  <text class="lab" x="624" y="648" text-anchor="end">50&#215;50 walkable &#8226; 960 shelf cells: your call</text>
</svg>