<svg xmlns="http://www.w3.org/2000/svg" class="gridfig" viewBox="0 0 628 662" role="img" aria-label="The starter kit's canonical layout: 24 double racks in four bands on the 52 by 52 grid"><style>.gridfig .floor{fill:#FFF}.gridfig .cellline{stroke:#ECEEEA;fill:none;stroke-width:1}.gridfig .wall{fill:#6B7681}.gridfig .dock{fill:#8250DF}.gridfig .shelfc{fill:#B9C2CC}.gridfig .lab{fill:#6B7681;font-family:ui-monospace,Menlo,monospace;font-size:13px}.gridfig{background:#FCFCFA}</style>
  <rect class="floor" x="14" y="14" width="600" height="600"/>
  <path class="cellline" d="M14 14v600M26 14v600M38 14v600M50 14v600M62 14v600M74 14v600M86 14v600M98 14v600M110 14v600M122 14v600M134 14v600M146 14v600M158 14v600M170 14v600M182 14v600M194 14v600M206 14v600M218 14v600M230 14v600M242 14v600M254 14v600M266 14v600M278 14v600M290 14v600M302 14v600M314 14v600M326 14v600M338 14v600M350 14v600M362 14v600M374 14v600M386 14v600M398 14v600M410 14v600M422 14v600M434 14v600M446 14v600M458 14v600M470 14v600M482 14v600M494 14v600M506 14v600M518 14v600M530 14v600M542 14v600M554 14v600M566 14v600M578 14v600M590 14v600M602 14v600M614 14v600M14 14h600M14 26h600M14 38h600M14 50h600M14 62h600M14 74h600M14 86h600M14 98h600M14 110h600M14 122h600M14 134h600M14 146h600M14 158h600M14 170h600M14 182h600M14 194h600M14 206h600M14 218h600M14 230h600M14 242h600M14 254h600M14 266h600M14 278h600M14 290h600M14 302h600M14 314h600M14 326h600M14 338h600M14 350h600M14 362h600M14 374h600M14 386h600M14 398h600M14 410h600M14 422h600M14 434h600M14 446h600M14 458h600M14 470h600M14 482h600M14 494h600M14 506h600M14 518h600M14 530h600M14 542h600M14 554h600M14 566h600M14 578h600M14 590h600M14 602h600M14 614h600"/>
  <path class="shelfc" d="M38 38h12v12h-12zM38 50h12v12h-12zM38 62h12v12h-12zM38 74h12v12h-12zM38 86h12v12h-12zM38 98h12v12h-12zM38 110h12v12h-12zM38 122h12v12h-12zM38 134h12v12h-12zM38 146h12v12h-12zM50 38h12v12h-12zM50 50h12v12h-12zM50 62h12v12h-12zM50 74h12v12h-12zM50 86h12v12h-12zM50 98h12v12h-12zM50 110h12v12h-12zM50 122h12v12h-12zM50 134h12v12h-12zM50 146h12v12h-12zM38 182h12v12h-12zM38 194h12v12h-12zM38 206h12v12h-12zM38 218h12v12h-12zM38 230h12v12h-12zM38 242h12v12h-12zM38 254h12v12h-12zM38 266h12v12h-12zM38 278h12v12h-12zM38 290h12v12h-12zM50 182h12v12h-12zM50 194h12v12h-12zM50 206h12v12h-12zM50 218h12v12h-12zM50 230h12v12h-12zM50 242h12v12h-12zM50 254h12v12h-12zM50 266h12v12h-12zM50 278h12v12h-12zM50 290h12v12h-12zM38 326h12v12h-12zM38 338h12v12h-12zM38 350h12v12h-12zM38 362h12v12h-12zM38 374h12v12h-12zM38 386h12v12h-12zM38 398h12v12h-12zM38 410h12v12h-12zM38 422h12v12h-12zM38 434h12v12h-12zM50 326h12v12h-12zM50 338h12v12h-12zM50 350h12v12h-12zM50 362h12v12h-12zM50 374h12v12h-12zM50 386h12v12h-12zM50 398h12v12h-12zM50 410h12v12h-12zM50 422h12v12h-12zM50 434h12v12h-12zM38 470h12v12h-12zM38 482h12v12h-12zM38 494h12v12h-12zM38 506h12v12h-12zM38 518h12v12h-12zM38 530h12v12h-12zM38 542h12v12h-12zM38 554h12v12h-12zM38 566h12v12h-12zM38 578h12v12h-12zM50 470h12v12h-12zM50 482h12v12h-12zM50 494h12v12h-12zM50 506h12v12h-12zM50 518h12v12h-12zM50 530h12v12h-12zM50 542h12v12h-12zM50 554h12v12h-12zM50 566h12v12h-12zM50 578h12v12h-12zM86 38h12v12h-12zM86 50h12v12h-12zM86 62h12v12h-12zM86 74h12v12h-12zM86 86h12v12h-12zM86 98h12v12h-12zM86 110h12v12h-12zM86 122h12v12h-12zM86 134h12v12h-12zM86 146h12v12h-12zM98 38h12v12h-12zM98 50h12v12h-12zM98 62h12v12h-12zM98 74h12v12h-12zM98 86h12v12h-12zM98 98h12v12h-12zM98 110h12v12h-12zM98 122h12v12h-12zM98 134h12v12h-12zM98 146h12v12h-12zM86 182h12v12h-12zM86 194h12v12h-12zM86 206h12v12h-12zM86 218h12v12h-12zM86 230h12v12h-12zM86 242h12v12h-12zM86 254h12v12h-12zM86 266h12v12h-12zM86 278h12v12h-12zM86 290h12v12h-12zM98 182h12v12h-12zM98 194h12v12h-12zM98 206h12v12h-12zM98 218h12v12h-12zM98 230h12v12h-12zM98 242h12v12h-12zM98 254h12v12h-12zM98 266h12v12h-12zM98 278h12v12h-12zM98 290h12v12h-12zM86 326h12v12h-12zM86 338h12v12h-12zM86 350h12v12h-12zM86 362h12v12h-12zM86 374h12v12h-12zM86 386h12v12h-12zM86 398h12v12h-12zM86 410h12v12h-12zM86 422h12v12h-12zM86 434h12v12h-12zM98 326h12v12h-12zM98 338h12v12h-12zM98 350h12v12h-12zM98 362h12v12h-12zM98 374h12v12h-12zM98 386h12v12h-12zM98 398h12v12h-12zM98 410h12v12h-12zM98 422h12v12h-12zM98 434h12v12h-12zM86 470h12v12h-12zM86 482h12v12h-12zM86 494h12v12h-12zM86 506h12v12h-12zM86 518h12v12h-12zM86 530h12v12h-12zM86 542h12v12h-12zM86 554h12v12h-12zM86 566h12v12h-12zM86 578h12v12h-12zM98 470h12v12h-12zM98 482h12v12h-12zM98 494h12v12h-12zM98 506h12v12h-12zM98 518h12v12h-12zM98 530h12v12h-12zM98 542h12v12h-12zM98 554h12v12h-12zM98 566h12v12h-12zM98 578h12v12h-12zM134 38h12v12h-12zM134 50h12v12h-12zM134 62h12v12h-12zM134 74h12v12h-12zM134 86h12v12h-12zM134 98h12v12h-12zM134 110h12v12h-12zM134 122h12v12h-12zM134 134h12v12h-12zM134 146h12v12h-12zM146 38h12v12h-12zM146 50h12v12h-12zM146 62h12v12h-12zM146 74h12v12h-12zM146 86h12v12h-12zM146 98h12v12h-12zM146 110h12v12h-12zM146 122h12v12h-12zM146 134h12v12h-12zM146 146h12v12h-12zM134 182h12v12h-12zM134 194h12v12h-12zM134 206h12v12h-12zM134 218h12v12h-12zM134 230h12v12h-12zM134 242h12v12h-12zM134 254h12v12h-12zM134 266h12v12h-12zM134 278h12v12h-12zM134 290h12v12h-12zM146 182h12v12h-12zM146 194h12v12h-12zM146 206h12v12h-12zM146 218h12v12h-12zM146 230h12v12h-12zM146 242h12v12h-12zM146 254h12v12h-12zM146 266h12v12h-12zM146 278h12v12h-12zM146 290h12v12h-12zM134 326h12v12h-12zM134 338h12v12h-12zM134 350h12v12h-12zM134 362h12v12h-12zM134 374h12v12h-12zM134 386h12v12h-12zM134 398h12v12h-12zM134 410h12v12h-12zM134 422h12v12h-12zM134 434h12v12h-12zM146 326h12v12h-12zM146 338h12v12h-12zM146 350h12v12h-12zM146 362h12v12h-12zM146 374h12v12h-12zM146 386h12v12h-12zM146 398h12v12h-12zM146 410h12v12h-12zM146 422h12v12h-12zM146 434h12v12h-12zM134 470h12v12h-12zM134 482h12v12h-12zM134 494h12v12h-12zM134 506h12v12h-12zM134 518h12v12h-12zM134 530h12v12h-12zM134 542h12v12h-12zM134 554h12v12h-12zM134 566h12v12h-12zM134 578h12v12h-12zM146 470h12v12h-12zM146 482h12v12h-12zM146 494h12v12h-12zM146 506h12v12h-12zM146 518h12v12h-12zM146 530h12v12h-12zM146 542h12v12h-12zM146 554h12v12h-12zM146 566h12v12h-12zM146 578h12v12h-12zM182 38h12v12h-12zM182 50h12v12h-12zM182 62h12v12h-12zM182 74h12v12h-12zM182 86h12v12h-12zM182 98h12v12h-12zM182 110h12v12h-12zM182 122h12v12h-12zM182 134h12v12h-12zM182 146h12v12h-12zM194 38h12v12h-12zM194 50h12v12h-12zM194 62h12v12h-12zM194 74h12v12h-12zM194 86h12v12h-12zM194 98h12v12h-12zM194 110h12v12h-12zM194 122h12v12h-12zM194 134h12v12h-12zM194 146h12v12h-12zM182 182h12v12h-12zM182 194h12v12h-12zM182 206h12v12h-12zM182 218h12v12h-12zM182 230h12v12h-12zM182 242h12v12h-12zM182 254h12v12h-12zM182 266h12v12h-12zM182 278h12v12h-12zM182 290h12v12h-12zM194 182h12v12h-12zM194 194h12v12h-12zM194 206h12v12h-12zM194 218h12v12h-12zM194 230h12v12h-12zM194 242h12v12h-12zM194 254h12v12h-12zM194 266h12v12h-12zM194 278h12v12h-12zM194 290h12v12h-12zM182 326h12v12h-12zM182 338h12v12h-12zM182 350h12v12h-12zM182 362h12v12h-12zM182 374h12v12h-12zM182 386h12v12h-12zM182 398h12v12h-12zM182 410h12v12h-12zM182 422h12v12h-12zM182 434h12v12h-12zM194 326h12v12h-12zM194 338h12v12h-12zM194 350h12v12h-12zM194 362h12v12h-12zM194 374h12v12h-12zM194 386h12v12h-12zM194 398h12v12h-12zM194 410h12v12h-12zM194 422h12v12h-12zM194 434h12v12h-12zM182 470h12v12h-12zM182 482h12v12h-12zM182 494h12v12h-12zM182 506h12v12h-12zM182 518h12v12h-12zM182 530h12v12h-12zM182 542h12v12h-12zM182 554h12v12h-12zM182 566h12v12h-12zM182 578h12v12h-12zM194 470h12v12h-12zM194 482h12v12h-12zM194 494h12v12h-12zM194 506h12v12h-12zM194 518h12v12h-12zM194 530h12v12h-12zM194 542h12v12h-12zM194 554h12v12h-12zM194 566h12v12h-12zM194 578h12v12h-12zM230 38h12v12h-12zM230 50h12v12h-12zM230 62h12v12h-12zM230 74h12v12h-12zM230 86h12v12h-12zM230 98h12v12h-12zM230 110h12v12h-12zM230 122h12v12h-12zM230 134h12v12h-12zM230 146h12v12h-12zM242 38h12v12h-12zM242 50h12v12h-12zM242 62h12v12h-12zM242 74h12v12h-12zM242 86h12v12h-12zM242 98h12v12h-12zM242 110h12v12h-12zM242 122h12v12h-12zM242 134h12v12h-12zM242 146h12v12h-12zM230 182h12v12h-12zM230 194h12v12h-12zM230 206h12v12h-12zM230 218h12v12h-12zM230 230h12v12h-12zM230 242h12v12h-12zM230 254h12v12h-12zM230 266h12v12h-12zM230 278h12v12h-12zM230 290h12v12h-12zM242 182h12v12h-12zM242 194h12v12h-12zM242 206h12v12h-12zM242 218h12v12h-12zM242 230h12v12h-12zM242 242h12v12h-12zM242 254h12v12h-12zM242 266h12v12h-12zM242 278h12v12h-12zM242 290h12v12h-12zM230 326h12v12h-12zM230 338h12v12h-12zM230 350h12v12h-12zM230 362h12v12h-12zM230 374h12v12h-12zM230 386h12v12h-12zM230 398h12v12h-12zM230 410h12v12h-12zM230 422h12v12h-12zM230 434h12v12h-12zM242 326h12v12h-12zM242 338h12v12h-12zM242 350h12v12h-12zM242 362h12v12h-12zM242 374h12v12h-12zM242 386h12v12h-12zM242 398h12v12h-12zM242 410h12v12h-12zM242 422h12v12h-12zM242 434h12v12h-12zM230 470h12v12h-12zM230 482h12v12h-12zM230 494h12v12h-12zM230 506h12v12h-12zM230 518h12v12h-12zM230 530h12v12h-12zM230 542h12v12h-12zM230 554h12v12h-12zM230 566h12v12h-12zM230 578h12v12h-12zM242 470h12v12h-12zM242 482h12v12h-12zM242 494h12v12h-12zM242 506h12v12h-12zM242 518h12v12h-12zM242 530h12v12h-12zM242 542h12v12h-12zM242 554h12v12h-12zM242 566h12v12h-12zM242 578h12v12h-12zM278 38h12v12h-12zM278 50h12v12h-12zM278 62h12v12h-12zM278 74h12v12h-12zM278 86h12v12h-12zM278 98h12v12h-12zM278 110h12v12h-12zM278 122h12v12h-12zM278 134h12v12h-12zM278 146h12v12h-12zM290 38h12v12h-12zM290 50h12v12h-12zM290 62h12v12h-12zM290 74h12v12h-12zM290 86h12v12h-12zM290 98h12v12h-12zM290 110h12v12h-12zM290 122h12v12h-12zM290 134h12v12h-12zM290 146h12v12h-12zM278 182h12v12h-12zM278 194h12v12h-12zM278 206h12v12h-12zM278 218h12v12h-12zM278 230h12v12h-12zM278 242h12v12h-12zM278 254h12v12h-12zM278 266h12v12h-12zM278 278h12v12h-12zM278 290h12v12h-12zM290 182h12v12h-12zM290 194h12v12h-12zM290 206h12v12h-12zM290 218h12v12h-12zM290 230h12v12h-12zM290 242h12v12h-12zM290 254h12v12h-12zM290 266h12v12h-12zM290 278h12v12h-12zM290 290h12v12h-12zM278 326h12v12h-12zM278 338h12v12h-12zM278 350h12v12h-12zM278 362h12v12h-12zM278 374h12v12h-12zM278 386h12v12h-12zM278 398h12v12h-12zM278 410h12v12h-12zM278 422h12v12h-12zM278 434h12v12h-12zM290 326h12v12h-12zM290 338h12v12h-12zM290 350h12v12h-12zM290 362h12v12h-12zM290 374h12v12h-12zM290 386h12v12h-12zM290 398h12v12h-12zM290 410h12v12h-12zM290 422h12v12h-12zM290 434h12v12h-12zM278 470h12v12h-12zM278 482h12v12h-12zM278 494h12v12h-12zM278 506h12v12h-12zM278 518h12v12h-12zM278 530h12v12h-12zM278 542h12v12h-12zM278 554h12v12h-12zM278 566h12v12h-12zM278 578h12v12h-12zM290 470h12v12h-12zM290 482h12v12h-12zM290 494h12v12h-12zM290 506h12v12h-12zM290 518h12v12h-12zM290 530h12v12h-12zM290 542h12v12h-12zM290 554h12v12h-12zM290 566h12v12h-12zM290 578h12v12h-12zM326 38h12v12h-12zM326 50h12v12h-12zM326 62h12v12h-12zM326 74h12v12h-12zM326 86h12v12h-12zM326 98h12v12h-12zM326 110h12v12h-12zM326 122h12v12h-12zM326 134h12v12h-12zM326 146h12v12h-12zM338 38h12v12h-12zM338 50h12v12h-12zM338 62h12v12h-12zM338 74h12v12h-12zM338 86h12v12h-12zM338 98h12v12h-12zM338 110h12v12h-12zM338 122h12v12h-12zM338 134h12v12h-12zM338 146h12v12h-12zM326 182h12v12h-12zM326 194h12v12h-12zM326 206h12v12h-12zM326 218h12v12h-12zM326 230h12v12h-12zM326 242h12v12h-12zM326 254h12v12h-12zM326 266h12v12h-12zM326 278h12v12h-12zM326 290h12v12h-12zM338 182h12v12h-12zM338 194h12v12h-12zM338 206h12v12h-12zM338 218h12v12h-12zM338 230h12v12h-12zM338 242h12v12h-12zM338 254h12v12h-12zM338 266h12v12h-12zM338 278h12v12h-12zM338 290h12v12h-12zM326 326h12v12h-12zM326 338h12v12h-12zM326 350h12v12h-12zM326 362h12v12h-12zM326 374h12v12h-12zM326 386h12v12h-12zM326 398h12v12h-12zM326 410h12v12h-12zM326 422h12v12h-12zM326 434h12v12h-12zM338 326h12v12h-12zM338 338h12v12h-12zM338 350h12v12h-12zM338 362h12v12h-12zM338 374h12v12h-12zM338 386h12v12h-12zM338 398h12v12h-12zM338 410h12v12h-12zM338 422h12v12h-12zM338 434h12v12h-12zM326 470h12v12h-12zM326 482h12v12h-12zM326 494h12v12h-12zM326 506h12v12h-12zM326 518h12v12h-12zM326 530h12v12h-12zM326 542h12v12h-12zM326 554h12v12h-12zM326 566h12v12h-12zM326 578h12v12h-12zM338 470h12v12h-12zM338 482h12v12h-12zM338 494h12v12h-12zM338 506h12v12h-12zM338 518h12v12h-12zM338 530h12v12h-12zM338 542h12v12h-12zM338 554h12v12h-12zM338 566h12v12h-12zM338 578h12v12h-12zM374 38h12v12h-12zM374 50h12v12h-12zM374 62h12v12h-12zM374 74h12v12h-12zM374 86h12v12h-12zM374 98h12v12h-12zM374 110h12v12h-12zM374 122h12v12h-12zM374 134h12v12h-12zM374 146h12v12h-12zM386 38h12v12h-12zM386 50h12v12h-12zM386 62h12v12h-12zM386 74h12v12h-12zM386 86h12v12h-12zM386 98h12v12h-12zM386 110h12v12h-12zM386 122h12v12h-12zM386 134h12v12h-12zM386 146h12v12h-12zM374 182h12v12h-12zM374 194h12v12h-12zM374 206h12v12h-12zM374 218h12v12h-12zM374 230h12v12h-12zM374 242h12v12h-12zM374 254h12v12h-12zM374 266h12v12h-12zM374 278h12v12h-12zM374 290h12v12h-12zM386 182h12v12h-12zM386 194h12v12h-12zM386 206h12v12h-12zM386 218h12v12h-12zM386 230h12v12h-12zM386 242h12v12h-12zM386 254h12v12h-12zM386 266h12v12h-12zM386 278h12v12h-12zM386 290h12v12h-12zM374 326h12v12h-12zM374 338h12v12h-12zM374 350h12v12h-12zM374 362h12v12h-12zM374 374h12v12h-12zM374 386h12v12h-12zM374 398h12v12h-12zM374 410h12v12h-12zM374 422h12v12h-12zM374 434h12v12h-12zM386 326h12v12h-12zM386 338h12v12h-12zM386 350h12v12h-12zM386 362h12v12h-12zM386 374h12v12h-12zM386 386h12v12h-12zM386 398h12v12h-12zM386 410h12v12h-12zM386 422h12v12h-12zM386 434h12v12h-12zM374 470h12v12h-12zM374 482h12v12h-12zM374 494h12v12h-12zM374 506h12v12h-12zM374 518h12v12h-12zM374 530h12v12h-12zM374 542h12v12h-12zM374 554h12v12h-12zM374 566h12v12h-12zM374 578h12v12h-12zM386 470h12v12h-12zM386 482h12v12h-12zM386 494h12v12h-12zM386 506h12v12h-12zM386 518h12v12h-12zM386 530h12v12h-12zM386 542h12v12h-12zM386 554h12v12h-12zM386 566h12v12h-12zM386 578h12v12h-12zM422 38h12v12h-12zM422 50h12v12h-12zM422 62h12v12h-12zM422 74h12v12h-12zM422 86h12v12h-12zM422 98h12v12h-12zM422 110h12v12h-12zM422 122h12v12h-12zM422 134h12v12h-12zM422 146h12v12h-12zM434 38h12v12h-12zM434 50h12v12h-12zM434 62h12v12h-12zM434 74h12v12h-12zM434 86h12v12h-12zM434 98h12v12h-12zM434 110h12v12h-12zM434 122h12v12h-12zM434 134h12v12h-12zM434 146h12v12h-12zM422 182h12v12h-12zM422 194h12v12h-12zM422 206h12v12h-12zM422 218h12v12h-12zM422 230h12v12h-12zM422 242h12v12h-12zM422 254h12v12h-12zM422 266h12v12h-12zM422 278h12v12h-12zM422 290h12v12h-12zM434 182h12v12h-12zM434 194h12v12h-12zM434 206h12v12h-12zM434 218h12v12h-12zM434 230h12v12h-12zM434 242h12v12h-12zM434 254h12v12h-12zM434 266h12v12h-12zM434 278h12v12h-12zM434 290h12v12h-12zM422 326h12v12h-12zM422 338h12v12h-12zM422 350h12v12h-12zM422 362h12v12h-12zM422 374h12v12h-12zM422 386h12v12h-12zM422 398h12v12h-12zM422 410h12v12h-12zM422 422h12v12h-12zM422 434h12v12h-12zM434 326h12v12h-12zM434 338h12v12h-12zM434 350h12v12h-12zM434 362h12v12h-12zM434 374h12v12h-12zM434 386h12v12h-12zM434 398h12v12h-12zM434 410h12v12h-12zM434 422h12v12h-12zM434 434h12v12h-12zM422 470h12v12h-12zM422 482h12v12h-12zM422 494h12v12h-12zM422 506h12v12h-12zM422 518h12v12h-12zM422 530h12v12h-12zM422 542h12v12h-12zM422 554h12v12h-12zM422 566h12v12h-12zM422 578h12v12h-12zM434 470h12v12h-12zM434 482h12v12h-12zM434 494h12v12h-12zM434 506h12v12h-12zM434 518h12v12h-12zM434 530h12v12h-12zM434 542h12v12h-12zM434 554h12v12h-12zM434 566h12v12h-12zM434 578h12v12h-12zM470 38h12v12h-12zM470 50h12v12h-12zM470 62h12v12h-12zM470 74h12v12h-12zM470 86h12v12h-12zM470 98h12v12h-12zM470 110h12v12h-12zM470 122h12v12h-12zM470 134h12v12h-12zM470 146h12v12h-12zM482 38h12v12h-12zM482 50h12v12h-12zM482 62h12v12h-12zM482 74h12v12h-12zM482 86h12v12h-12zM482 98h12v12h-12zM482 110h12v12h-12zM482 122h12v12h-12zM482 134h12v12h-12zM482 146h12v12h-12zM470 182h12v12h-12zM470 194h12v12h-12zM470 206h12v12h-12zM470 218h12v12h-12zM470 230h12v12h-12zM470 242h12v12h-12zM470 254h12v12h-12zM470 266h12v12h-12zM470 278h12v12h-12zM470 290h12v12h-12zM482 182h12v12h-12zM482 194h12v12h-12zM482 206h12v12h-12zM482 218h12v12h-12zM482 230h12v12h-12zM482 242h12v12h-12zM482 254h12v12h-12zM482 266h12v12h-12zM482 278h12v12h-12zM482 290h12v12h-12zM470 326h12v12h-12zM470 338h12v12h-12zM470 350h12v12h-12zM470 362h12v12h-12zM470 374h12v12h-12zM470 386h12v12h-12zM470 398h12v12h-12zM470 410h12v12h-12zM470 422h12v12h-12zM470 434h12v12h-12zM482 326h12v12h-12zM482 338h12v12h-12zM482 350h12v12h-12zM482 362h12v12h-12zM482 374h12v12h-12zM482 386h12v12h-12zM482 398h12v12h-12zM482 410h12v12h-12zM482 422h12v12h-12zM482 434h12v12h-12zM470 470h12v12h-12zM470 482h12v12h-12zM470 494h12v12h-12zM470 506h12v12h-12zM470 518h12v12h-12zM470 530h12v12h-12zM470 542h12v12h-12zM470 554h12v12h-12zM470 566h12v12h-12zM470 578h12v12h-12zM482 470h12v12h-12zM482 482h12v12h-12zM482 494h12v12h-12zM482 506h12v12h-12zM482 518h12v12h-12zM482 530h12v12h-12zM482 542h12v12h-12zM482 554h12v12h-12zM482 566h12v12h-12zM482 578h12v12h-12zM518 38h12v12h-12zM518 50h12v12h-12zM518 62h12v12h-12zM518 74h12v12h-12zM518 86h12v12h-12zM518 98h12v12h-12zM518 110h12v12h-12zM518 122h12v12h-12zM518 134h12v12h-12zM518 146h12v12h-12zM530 38h12v12h-12zM530 50h12v12h-12zM530 62h12v12h-12zM530 74h12v12h-12zM530 86h12v12h-12zM530 98h12v12h-12zM530 110h12v12h-12zM530 122h12v12h-12zM530 134h12v12h-12zM530 146h12v12h-12zM518 182h12v12h-12zM518 194h12v12h-12zM518 206h12v12h-12zM518 218h12v12h-12zM518 230h12v12h-12zM518 242h12v12h-12zM518 254h12v12h-12zM518 266h12v12h-12zM518 278h12v12h-12zM518 290h12v12h-12zM530 182h12v12h-12zM530 194h12v12h-12zM530 206h12v12h-12zM530 218h12v12h-12zM530 230h12v12h-12zM530 242h12v12h-12zM530 254h12v12h-12zM530 266h12v12h-12zM530 278h12v12h-12zM530 290h12v12h-12zM518 326h12v12h-12zM518 338h12v12h-12zM518 350h12v12h-12zM518 362h12v12h-12zM518 374h12v12h-12zM518 386h12v12h-12zM518 398h12v12h-12zM518 410h12v12h-12zM518 422h12v12h-12zM518 434h12v12h-12zM530 326h12v12h-12zM530 338h12v12h-12zM530 350h12v12h-12zM530 362h12v12h-12zM530 374h12v12h-12zM530 386h12v12h-12zM530 398h12v12h-12zM530 410h12v12h-12zM530 422h12v12h-12zM530 434h12v12h-12zM518 470h12v12h-12zM518 482h12v12h-12zM518 494h12v12h-12zM518 506h12v12h-12zM518 518h12v12h-12zM518 530h12v12h-12zM518 542h12v12h-12zM518 554h12v12h-12zM518 566h12v12h-12zM518 578h12v12h-12zM530 470h12v12h-12zM530 482h12v12h-12zM530 494h12v12h-12zM530 506h12v12h-12zM530 518h12v12h-12zM530 530h12v12h-12zM530 542h12v12h-12zM530 554h12v12h-12zM530 566h12v12h-12zM530 578h12v12h-12zM566 38h12v12h-12zM566 50h12v12h-12zM566 62h12v12h-12zM566 74h12v12h-12zM566 86h12v12h-12zM566 98h12v12h-12zM566 110h12v12h-12zM566 122h12v12h-12zM566 134h12v12h-12zM566 146h12v12h-12zM578 38h12v12h-12zM578 50h12v12h-12zM578 62h12v12h-12zM578 74h12v12h-12zM578 86h12v12h-12zM578 98h12v12h-12zM578 110h12v12h-12zM578 122h12v12h-12zM578 134h12v12h-12zM578 146h12v12h-12zM566 182h12v12h-12zM566 194h12v12h-12zM566 206h12v12h-12zM566 218h12v12h-12zM566 230h12v12h-12zM566 242h12v12h-12zM566 254h12v12h-12zM566 266h12v12h-12zM566 278h12v12h-12zM566 290h12v12h-12zM578 182h12v12h-12zM578 194h12v12h-12zM578 206h12v12h-12zM578 218h12v12h-12zM578 230h12v12h-12zM578 242h12v12h-12zM578 254h12v12h-12zM578 266h12v12h-12zM578 278h12v12h-12zM578 290h12v12h-12zM566 326h12v12h-12zM566 338h12v12h-12zM566 350h12v12h-12zM566 362h12v12h-12zM566 374h12v12h-12zM566 386h12v12h-12zM566 398h12v12h-12zM566 410h12v12h-12zM566 422h12v12h-12zM566 434h12v12h-12zM578 326h12v12h-12zM578 338h12v12h-12zM578 350h12v12h-12zM578 362h12v12h-12zM578 374h12v12h-12zM578 386h12v12h-12zM578 398h12v12h-12zM578 410h12v12h-12zM578 422h12v12h-12zM578 434h12v12h-12zM566 470h12v12h-12zM566 482h12v12h-12zM566 494h12v12h-12zM566 506h12v12h-12zM566 518h12v12h-12zM566 530h12v12h-12zM566 542h12v12h-12zM566 554h12v12h-12zM566 566h12v12h-12zM566 578h12v12h-12zM578 470h12v12h-12zM578 482h12v12h-12zM578 494h12v12h-12zM578 506h12v12h-12zM578 518h12v12h-12zM578 530h12v12h-12zM578 542h12v12h-12zM578 554h12v12h-12zM578 566h12v12h-12zM578 578h12v12h-12z"/>
  <rect class="wall" x="2" y="2" width="624" height="12"/><rect class="wall" x="2" y="614" width="624" height="12"/><rect class="wall" x="2" y="14" width="12" height="600"/><rect class="wall" x="614" y="14" width="12" height="600"/>
  <rect class="dock" x="38" y="2" width="12" height="12"/><rect class="dock" x="62" y="2" width="12" height="12"/><rect class="dock" x="86" y="2" width="12" height="12"/><rect class="dock" x="110" y="2" width="12" height="12"/><rect class="dock" x="134" y="2" width="12" height="12"/><rect class="dock" x="158" y="2" width="12" height="12"/><rect class="dock" x="182" y="2" width="12" height="12"/><rect class="dock" x="206" y="2" width="12" height="12"/><rect class="dock" x="230" y="2" width="12" height="12"/><rect class="dock" x="254" y="2" width="12" height="12"/><rect class="dock" x="278" y="2" width="12" height="12"/><rect class="dock" x="302" y="2" width="12" height="12"/><rect class="dock" x="326" y="2" width="12" height="12"/><rect class="dock" x="350" y="2" width="12" height="12"/><rect class="dock" x="374" y="2" width="12" height="12"/><rect class="dock" x="398" y="2" width="12" height="12"/><rect class="dock" x="422" y="2" width="12" height="12"/><rect class="dock" x="446" y="2" width="12" height="12"/><rect class="dock" x="470" y="2" width="12" height="12"/><rect class="dock" x="494" y="2" width="12" height="12"/><rect class="dock" x="518" y="2" width="12" height="12"/><rect class="dock" x="542" y="2" width="12" height="12"/><rect class="dock" x="566" y="2" width="12" height="12"/><rect class="dock" x="590" y="2" width="12" height="12"/><rect class="dock" x="26" y="614" width="12" height="12"/><rect class="dock" x="50" y="614" width="12" height="12"/><rect class="dock" x="74" y="614" width="12" height="12"/><rect class="dock" x="98" y="614" width="12" height="12"/><rect class="dock" x="122" y="614" width="12" height="12"/><rect class="dock" x="146" y="614" width="12" height="12"/><rect class="dock" x="170" y="614" width="12" height="12"/><rect class="dock" x="194" y="614" width="12" height="12"/><rect class="dock" x="218" y="614" width="12" height="12"/><rect class="dock" x="242" y="614" width="12" height="12"/><rect class="dock" x="266" y="614" width="12" height="12"/><rect class="dock" x="290" y="614" width="12" height="12"/><rect class="dock" x="314" y="614" width="12" height="12"/><rect class="dock" x="338" y="614" width="12" height="12"/><rect class="dock" x="362" y="614" width="12" height="12"/><rect class="dock" x="386" y="614" width="12" height="12"/><rect class="dock" x="410" y="614" width="12" height="12"/><rect class="dock" x="434" y="614" width="12" height="12"/><rect class="dock" x="458" y="614" width="12" height="12"/><rect class="dock" x="482" y="614" width="12" height="12"/><rect class="dock" x="506" y="614" width="12" height="12"/><rect class="dock" x="530" y="614" width="12" height="12"/><rect class="dock" x="554" y="614" width="12" height="12"/><rect class="dock" x="578" y="614" width="12" height="12"/><rect class="dock" x="2" y="26" width="12" height="12"/><rect class="dock" x="2" y="50" width="12" height="12"/><rect class="dock" x="2" y="74" width="12" height="12"/><rect class="dock" x="2" y="98" width="12" height="12"/><rect class="dock" x="2" y="122" width="12" height="12"/><rect class="dock" x="2" y="146" width="12" height="12"/><rect class="dock" x="2" y="170" width="12" height="12"/><rect class="dock" x="2" y="194" width="12" height="12"/><rect class="dock" x="2" y="218" width="12" height="12"/><rect class="dock" x="2" y="242" width="12" height="12"/><rect class="dock" x="2" y="266" width="12" height="12"/><rect class="dock" x="2" y="290" width="12" height="12"/><rect class="dock" x="2" y="314" width="12" height="12"/><rect class="dock" x="2" y="338" width="12" height="12"/><rect class="dock" x="2" y="362" width="12" height="12"/><rect class="dock" x="2" y="386" width="12" height="12"/><rect class="dock" x="2" y="410" width="12" height="12"/><rect class="dock" x="2" y="434" width="12" height="12"/><rect class="dock" x="2" y="458" width="12" height="12"/><rect class="dock" x="2" y="482" width="12" height="12"/><rect class="dock" x="2" y="506" width="12" height="12"/><rect class="dock" x="2" y="530" width="12" height="12"/><rect class="dock" x="2" y="554" width="12" height="12"/><rect class="dock" x="2" y="578" width="12" height="12"/><rect class="dock" x="614" y="38" width="12" height="12"/><rect class="dock" x="614" y="62" width="12" height="12"/><rect class="dock" x="614" y="86" width="12" height="12"/><rect class="dock" x="614" y="110" width="12" height="12"/><rect class="dock" x="614" y="134" width="12" height="12"/><rect class="dock" x="614" y="158" width="12" height="12"/><rect class="dock" x="614" y="182" width="12" height="12"/><rect class="dock" x="614" y="206" width="12" height="12"/><rect class="dock" x="614" y="230" width="12" height="12"/><rect class="dock" x="614" y="254" width="12" height="12"/><rect class="dock" x="614" y="278" width="12" height="12"/><rect class="dock" x="614" y="302" width="12" height="12"/><rect class="dock" x="614" y="326" width="12" height="12"/><rect class="dock" x="614" y="350" width="12" height="12"/><rect class="dock" x="614" y="374" width="12" height="12"/><rect class="dock" x="614" y="398" width="12" height="12"/><rect class="dock" x="614" y="422" width="12" height="12"/><rect class="dock" x="614" y="446" width="12" height="12"/><rect class="dock" x="614" y="470" width="12" height="12"/><rect class="dock" x="614" y="494" width="12" height="12"/><rect class="dock" x="614" y="518" width="12" height="12"/><rect class="dock" x="614" y="542" width="12" height="12"/><rect class="dock" x="614" y="566" width="12" height="12"/><rect class="dock" x="614" y="590" width="12" height="12"/>
  <rect class="shelfc" x="2" y="637" width="12" height="12"/>
  <text class="lab" x="20" y="648">shelf &#215; 960 (the kit's arrangement)</text>
  <rect class="dock" x="312" y="637" width="12" height="12"/>
  <text class="lab" x="330" y="648">dock &#215; 96</text>
  <text class="lab" x="624" y="648" text-anchor="end">every shelf is movable</text>
</svg>